Renner-800-HeavyItalic.ufo
<glyph name="quotedbl" format="1">
  <advance width="534"/>
  <unicode hex="0022"/>
  <outline>
    <contour>
      <point x="221" y="700" type="line"/>
      <point x="401" y="700" type="line"/>
      <point x="234" y="376" type="line"/>
      <point x="122" y="376" type="line"/>
    </contour>
    <contour>
      <point x="441" y="700" type="line"/>
      <point x="621" y="700" type="line"/>
      <point x="454" y="376" type="line"/>
      <point x="342" y="376" type="line"/>
    </contour>
  </outline>
</glyph>
<glyph name="parenleft" format="1">
  <advance width="350"/>
  <unicode hex="0028"/>
  <outline>
    <contour>
      <point x="323" y="780" type="curve"/>
      <point x="479" y="780" type="line"/>
      <point x="383" y="630"/>
      <point x="310" y="460"/>
      <point x="280" y="290" type="curve" smooth="yes"/>
      <point x="250" y="120"/>
      <point x="262" y="-50"/>
      <point x="306" y="-200" type="curve"/>
      <point x="150" y="-200" type="line"/>
      <point x="96" y="-50"/>
      <point x="83" y="120"/>
      <point x="113" y="290" type="curve" smooth="yes"/>
      <point x="143" y="460"/>
      <point x="217" y="630"/>
    </contour>
  </outline>
</glyph>
<glyph name="parenright" format="1">
  <advance width="350"/>
  <unicode hex="0029"/>
  <outline>
    <contour>
      <point x="131" y="-200" type="curve"/>
      <point x="-25" y="-200" type="line"/>
      <point x="71" y="-50"/>
      <point x="143" y="120"/>
      <point x="173" y="290" type="curve" smooth="yes"/>
      <point x="203" y="460"/>
      <point x="192" y="630"/>
      <point x="148" y="780" type="curve"/>
      <point x="304" y="780" type="line"/>
      <point x="358" y="630"/>
      <point x="370" y="460"/>
      <point x="340" y="290" type="curve" smooth="yes"/>
      <point x="310" y="120"/>
      <point x="237" y="-50"/>
    </contour>
  </outline>
</glyph>
<glyph name="hyphen" format="1">
  <advance width="226"/>
  <unicode hex="002D"/>
  <outline>
    <contour>
      <point x="34" y="164" type="line"/>
      <point x="60" y="312" type="line"/>
      <point x="277" y="312" type="line"/>
      <point x="251" y="164" type="line"/>
    </contour>
  </outline>
</glyph>
<glyph name="zero" format="1">
  <advance width="681"/>
  <unicode hex="0030"/>
  <outline>
    <contour>
      <point x="288" y="350" type="curve" smooth="yes"/>
      <point x="266" y="228"/>
      <point x="299" y="151"/>
      <point x="367" y="151" type="curve" smooth="yes"/>
      <point x="435" y="151"/>
      <point x="495" y="228"/>
      <point x="517" y="350" type="curve" smooth="yes"/>
      <point x="539" y="472"/>
      <point x="505" y="549"/>
      <point x="437" y="549" type="curve" smooth="yes"/>
      <point x="369" y="549"/>
      <point x="310" y="472"/>
    </contour>
    <contour>
      <point x="102" y="350" type="curve" smooth="yes"/>
      <point x="143" y="584"/>
      <point x="288" y="714"/>
      <point x="466" y="714" type="curve" smooth="yes"/>
      <point x="652" y="714"/>
      <point x="744" y="584"/>
      <point x="703" y="350" type="curve" smooth="yes"/>
      <point x="662" y="116"/>
      <point x="524" y="-14"/>
      <point x="338" y="-14" type="curve" smooth="yes"/>
      <point x="160" y="-14"/>
      <point x="61" y="116"/>
    </contour>
  </outline>
</glyph>
<glyph name="four" format="1">
  <advance width="733"/>
  <unicode hex="0034"/>
  <outline>
    <contour>
      <point x="33" y="120" type="line"/>
      <point x="216" y="256" type="line"/>
      <point x="527" y="256" type="line" smooth="yes"/>
      <point x="550" y="284" type="line" smooth="yes"/>
      <point x="737" y="284" type="line"/>
      <point x="708" y="120" type="line"/>
    </contour>
    <contour>
      <point x="240" y="184" type="line"/>
      <point x="33" y="120" type="line"/>
      <point x="547" y="700" type="line"/>
      <point x="700" y="700" type="line"/>
      <point x="577" y="0" type="line"/>
      <point x="374" y="0" type="line"/>
      <point x="402" y="156" type="line" smooth="yes"/>
      <point x="427" y="167" type="line" smooth="yes"/>
      <point x="475" y="438" type="line"/>
    </contour>
  </outline>
</glyph>
<glyph name="six" format="1">
  <advance width="697"/>
  <unicode hex="0036"/>
  <outline>
    <contour>
      <point x="288" y="250" type="curve" smooth="yes"/>
      <point x="277" y="186"/>
      <point x="315" y="146"/>
      <point x="375" y="146" type="curve" smooth="yes"/>
      <point x="435" y="146"/>
      <point x="487" y="186"/>
      <point x="498" y="250" type="curve" smooth="yes"/>
      <point x="509" y="314"/>
      <point x="472" y="356"/>
      <point x="412" y="356" type="curve" smooth="yes"/>
      <point x="352" y="356"/>
      <point x="299" y="314"/>
    </contour>
    <contour>
      <point x="457" y="696" type="line"/>
      <point x="704" y="696" type="line"/>
      <point x="432" y="454" type="line"/>
      <point x="384" y="433" type="line"/>
      <point x="432" y="470"/>
      <point x="470" y="473"/>
      <point x="522" y="473" type="curve" smooth="yes"/>
      <point x="624" y="473"/>
      <point x="720" y="406"/>
      <point x="692" y="250" type="curve" smooth="yes"/>
      <point x="660" y="70"/>
      <point x="510" y="-18"/>
      <point x="346" y="-18" type="curve" smooth="yes"/>
      <point x="182" y="-18"/>
      <point x="62" y="70"/>
      <point x="94" y="250" type="curve" smooth="yes"/>
      <point x="108" y="332"/>
      <point x="161" y="398"/>
      <point x="224" y="460" type="curve" smooth="yes"/>
    </contour>
  </outline>
</glyph>
<glyph name="semicolon" format="1">
  <advance width="412"/>
  <unicode hex="003B"/>
  <outline>
    <contour>
      <point x="194" y="440" type="curve" smooth="yes"/>
      <point x="204" y="496"/>
      <point x="257" y="544"/>
      <point x="319" y="544" type="curve" smooth="yes"/>
      <point x="381" y="544"/>
      <point x="418" y="496"/>
      <point x="408" y="440" type="curve" smooth="yes"/>
      <point x="398" y="384"/>
      <point x="344" y="336"/>
      <point x="282" y="336" type="curve" smooth="yes"/>
      <point x="220" y="336"/>
      <point x="184" y="384"/>
    </contour>
    <contour>
      <point x="159" y="110" type="line"/>
      <point x="328" y="77" type="line"/>
      <point x="152" y="-173" type="line"/>
      <point x="26" y="-149" type="line"/>
    </contour>
  </outline>
</glyph>
<glyph name="greater" format="1">
  <advance width="640"/>
  <unicode hex="003E"/>
  <outline>
    <contour>
      <point x="380" y="262" type="line"/>
      <point x="130" y="368" type="line"/>
      <point x="160" y="536" type="line"/>
      <point x="632" y="324" type="line"/>
      <point x="611" y="206" type="line"/>
      <point x="64" y="-5" type="line"/>
      <point x="94" y="164" type="line"/>
    </contour>
  </outline>
</glyph>
<glyph name="D" format="1">
  <advance width="749"/>
  <unicode hex="0044"/>
  <outline>
    <contour>
      <point x="297" y="530" type="line"/>
      <point x="327" y="700" type="line"/>
      <point x="457" y="700" type="line" smooth="yes"/>
      <point x="693" y="700"/>
      <point x="818" y="568"/>
      <point x="780" y="350" type="curve"/>
      <point x="576" y="350" type="line"/>
      <point x="602" y="496"/>
      <point x="512" y="530"/>
      <point x="419" y="530" type="curve" smooth="yes"/>
    </contour>
    <contour>
      <point x="334" y="0" type="curve" smooth="yes"/>
      <point x="204" y="0" type="line"/>
      <point x="234" y="170" type="line"/>
      <point x="356" y="170" type="line" smooth="yes"/>
      <point x="449" y="170"/>
      <point x="550" y="204"/>
      <point x="576" y="350" type="curve"/>
      <point x="780" y="350" type="line"/>
      <point x="742" y="132"/>
      <point x="570" y="0"/>
    </contour>
    <contour>
      <point x="195" y="700" type="line"/>
      <point x="397" y="700" type="line"/>
      <point x="274" y="0" type="line"/>
      <point x="72" y="0" type="line"/>
    </contour>
  </outline>
</glyph>
<glyph name="J" format="1">
  <advance width="357"/>
  <unicode hex="004A"/>
  <outline>
    <contour>
      <point x="-82" y="-48" type="line"/>
      <point x="-63" y="-64"/>
      <point x="-34" y="-80"/>
      <point x="-6" y="-80" type="curve" smooth="yes"/>
      <point x="24" y="-80"/>
      <point x="62" y="-60"/>
      <point x="72" y="-2" type="curve" smooth="yes"/>
      <point x="195" y="700" type="line"/>
      <point x="409" y="700" type="line"/>
      <point x="277" y="-52" type="line" smooth="yes"/>
      <point x="252" y="-194"/>
      <point x="123" y="-244"/>
      <point x="-11" y="-244" type="curve" smooth="yes"/>
      <point x="-97" y="-244"/>
      <point x="-170" y="-214"/>
      <point x="-213" y="-186" type="curve"/>
    </contour>
  </outline>
</glyph>
<glyph name="Q" format="1">
  <advance width="885"/>
  <unicode hex="0051"/>
  <outline>
    <contour>
      <point x="300" y="350" type="curve" smooth="yes"/>
      <point x="277" y="220"/>
      <point x="353" y="142"/>
      <point x="461" y="142" type="curve" smooth="yes"/>
      <point x="569" y="142"/>
      <point x="654" y="212"/>
      <point x="674" y="326" type="curve" smooth="yes"/>
      <point x="694" y="440"/>
      <point x="643" y="541"/>
      <point x="515" y="541" type="curve" smooth="yes"/>
      <point x="407" y="541"/>
      <point x="320" y="464"/>
    </contour>
    <contour>
      <point x="94" y="350" type="curve" smooth="yes"/>
      <point x="133" y="570"/>
      <point x="331" y="718"/>
      <point x="547" y="718" type="curve" smooth="yes"/>
      <point x="767" y="718"/>
      <point x="900" y="570"/>
      <point x="861" y="350" type="curve" smooth="yes"/>
      <point x="822" y="130"/>
      <point x="639" y="-26"/>
      <point x="415" y="-26" type="curve" smooth="yes"/>
      <point x="191" y="-26"/>
      <point x="55" y="130"/>
    </contour>
    <contour>
      <point x="403" y="300" type="line"/>
      <point x="598" y="300" type="line"/>
      <point x="891" y="-16" type="line"/>
      <point x="687" y="-16" type="line"/>
    </contour>
  </outline>
</glyph>
<glyph name="T" format="1">
  <advance width="590"/>
  <unicode hex="0054"/>
  <outline>
    <contour>
      <point x="95" y="526" type="line"/>
      <point x="125" y="700" type="line"/>
      <point x="712" y="700" type="line"/>
      <point x="682" y="526" type="line"/>
      <point x="486" y="526" type="line"/>
      <point x="393" y="0" type="line"/>
      <point x="198" y="0" type="line"/>
      <point x="291" y="526" type="line"/>
    </contour>
  </outline>
</glyph>
<glyph name="U" format="1">
  <advance width="723"/>
  <unicode hex="0055"/>
  <outline>
    <contour>
      <point x="189" y="700" type="line"/>
      <point x="385" y="700" type="line"/>
      <point x="305" y="246" type="line" smooth="yes"/>
      <point x="294" y="182"/>
      <point x="319" y="139"/>
      <point x="387" y="139" type="curve" smooth="yes"/>
      <point x="455" y="139"/>
      <point x="494" y="182"/>
      <point x="505" y="246" type="curve" smooth="yes"/>
      <point x="585" y="700" type="line"/>
      <point x="779" y="700" type="line"/>
      <point x="697" y="230" type="line" smooth="yes"/>
      <point x="664" y="42"/>
      <point x="518" y="-34"/>
      <point x="356" y="-34" type="curve" smooth="yes"/>
      <point x="194" y="-34"/>
      <point x="74" y="42"/>
      <point x="107" y="230" type="curve" smooth="yes"/>
    </contour>
  </outline>
</glyph>
<glyph name="V" format="1">
  <advance width="757"/>
  <unicode hex="0056"/>
  <outline>
    <contour>
      <point x="435" y="320" type="line"/>
      <point x="655" y="700" type="line"/>
      <point x="883" y="700" type="line"/>
      <point x="371" y="-47" type="line"/>
      <point x="119" y="700" type="line"/>
      <point x="349" y="700" type="line"/>
    </contour>
  </outline>
</glyph>
<glyph name="underscore" format="1">
  <advance width="540"/>
  <unicode hex="005F"/>
  <outline>
    <contour>
      <point x="-28" y="-160" type="line"/>
      <point x="-9" y="-52" type="line"/>
      <point x="531" y="-52" type="line"/>
      <point x="512" y="-160" type="line"/>
    </contour>
  </outline>
</glyph>
<glyph name="e" format="1">
  <advance width="586"/>
  <unicode hex="0065"/>
  <outline>
    <contour>
      <point x="130" y="194" type="line"/>
      <point x="146" y="286" type="line"/>
      <point x="583" y="286" type="line"/>
      <point x="582" y="194" type="line"/>
    </contour>
    <contour>
      <point x="423" y="242" type="line" smooth="yes"/>
      <point x="436" y="317"/>
      <point x="418" y="354"/>
      <point x="358" y="354" type="curve" smooth="yes"/>
      <point x="300" y="354"/>
      <point x="258" y="319"/>
      <point x="246" y="252" type="curve"/>
      <point x="241" y="230" type="line"/>
      <point x="226" y="145"/>
      <point x="266" y="112"/>
      <point x="320" y="112" type="curve" smooth="yes"/>
      <point x="366" y="112"/>
      <point x="404" y="128"/>
      <point x="426" y="162" type="curve"/>
      <point x="571" y="126" type="line"/>
      <point x="516" y="45"/>
      <point x="435" y="-10"/>
      <point x="299" y="-10" type="curve" smooth="yes"/>
      <point x="127" y="-10"/>
      <point x="50" y="91"/>
      <point x="75" y="230" type="curve" smooth="yes"/>
      <point x="78" y="247"/>
      <point x="81" y="264"/>
      <point x="87" y="280" type="curve" smooth="yes"/>
      <point x="126" y="393"/>
      <point x="233" y="470"/>
      <point x="383" y="470" type="curve" smooth="yes"/>
      <point x="539" y="470"/>
      <point x="618" y="383"/>
      <point x="592" y="238" type="curve" smooth="yes"/>
      <point x="591" y="230"/>
      <point x="587" y="212"/>
      <point x="582" y="194" type="curve"/>
      <point x="418" y="214" type="line"/>
    </contour>
  </outline>
</glyph>
<glyph name="f" format="1">
  <advance width="361"/>
  <unicode hex="0066"/>
  <outline>
    <contour>
      <point x="93" y="460" type="line"/>
      <point x="432" y="460" type="line"/>
      <point x="407" y="320" type="line"/>
      <point x="68" y="320" type="line"/>
    </contour>
    <contour>
      <point x="441" y="620" type="line"/>
      <point x="430" y="636"/>
      <point x="418" y="645"/>
      <point x="400" y="645" type="curve" smooth="yes"/>
      <point x="370" y="645"/>
      <point x="348" y="626"/>
      <point x="341" y="584" type="curve" smooth="yes"/>
      <point x="238" y="0" type="line"/>
      <point x="73" y="0" type="line"/>
      <point x="184" y="630" type="line" smooth="yes"/>
      <point x="202" y="730"/>
      <point x="275" y="798"/>
      <point x="399" y="798" type="curve" smooth="yes"/>
      <point x="475" y="798"/>
      <point x="509" y="764"/>
      <point x="529" y="744" type="curve"/>
    </contour>
  </outline>
</glyph>
<glyph name="i" format="1">
  <advance width="281"/>
  <unicode hex="0069"/>
  <outline>
    <contour>
      <point x="153" y="627" type="curve" smooth="yes"/>
      <point x="163" y="681"/>
      <point x="212" y="717"/>
      <point x="266" y="717" type="curve" smooth="yes"/>
      <point x="320" y="717"/>
      <point x="359" y="681"/>
      <point x="349" y="627" type="curve" smooth="yes"/>
      <point x="339" y="573"/>
      <point x="289" y="537"/>
      <point x="235" y="537" type="curve" smooth="yes"/>
      <point x="181" y="537"/>
      <point x="143" y="573"/>
    </contour>
    <contour>
      <point x="137" y="460" type="line"/>
      <point x="305" y="460" type="line"/>
      <point x="224" y="0" type="line"/>
      <point x="56" y="0" type="line"/>
    </contour>
  </outline>
</glyph>
<glyph name="l" format="1">
  <advance width="282"/>
  <unicode hex="006C"/>
  <outline>
    <contour>
      <point x="193" y="780" type="line"/>
      <point x="366" y="780" type="line"/>
      <point x="228" y="0" type="line"/>
      <point x="55" y="0" type="line"/>
    </contour>
  </outline>
</glyph>
<glyph name="m" format="1">
  <advance width="832"/>
  <unicode hex="006D"/>
  <outline>
    <contour>
      <point x="375" y="280" type="line" smooth="yes"/>
      <point x="383" y="328"/>
      <point x="375" y="355"/>
      <point x="339" y="355" type="curve" smooth="yes"/>
      <point x="305" y="355"/>
      <point x="278" y="330"/>
      <point x="269" y="280" type="curve"/>
      <point x="242" y="272" type="line"/>
      <point x="261" y="381"/>
      <point x="326" y="470"/>
      <point x="438" y="470" type="curve" smooth="yes"/>
      <point x="550" y="470"/>
      <point x="572" y="416"/>
      <point x="553" y="306" type="curve" smooth="yes"/>
      <point x="499" y="0" type="line"/>
      <point x="326" y="0" type="line"/>
    </contour>
    <contour>
      <point x="301" y="460" type="line"/>
      <point x="220" y="0" type="line"/>
      <point x="55" y="0" type="line"/>
      <point x="136" y="460" type="line"/>
    </contour>
    <contour>
      <point x="831" y="298" type="curve" smooth="yes"/>
      <point x="778" y="0" type="line"/>
      <point x="605" y="0" type="line"/>
      <point x="654" y="280" type="line" smooth="yes"/>
      <point x="662" y="328"/>
      <point x="653" y="355"/>
      <point x="617" y="355" type="curve" smooth="yes"/>
      <point x="583" y="355"/>
      <point x="557" y="330"/>
      <point x="548" y="280" type="curve"/>
      <point x="494" y="272" type="line"/>
      <point x="513" y="381"/>
      <point x="605" y="470"/>
      <point x="717" y="470" type="curve" smooth="yes"/>
      <point x="829" y="470"/>
      <point x="850" y="408"/>
    </contour>
  </outline>
</glyph>
<glyph name="t" format="1">
  <advance width="341"/>
  <unicode hex="0074"/>
  <outline>
    <contour>
      <point x="86" y="460" type="line"/>
      <point x="417" y="460" type="line"/>
      <point x="392" y="320" type="line"/>
      <point x="61" y="320" type="line"/>
    </contour>
    <contour>
      <point x="197" y="620" type="line"/>
      <point x="363" y="620" type="line"/>
      <point x="254" y="0" type="line"/>
      <point x="88" y="0" type="line"/>
    </contour>
  </outline>
</glyph>
<glyph name="exclamdown" format="1">
  <advance width="356"/>
  <unicode hex="00A1"/>
  <outline>
    <contour>
      <point x="246" y="-225" type="line"/>
      <point x="32" y="-225" type="line"/>
      <point x="149" y="235" type="line"/>
      <point x="290" y="235" type="line"/>
    </contour>
    <contour>
      <point x="356" y="406" type="curve" smooth="yes"/>
      <point x="346" y="350"/>
      <point x="295" y="311"/>
      <point x="233" y="311" type="curve" smooth="yes"/>
      <point x="171" y="311"/>
      <point x="134" y="350"/>
      <point x="144" y="406" type="curve" smooth="yes"/>
      <point x="154" y="462"/>
      <point x="205" y="502"/>
      <point x="267" y="502" type="curve" smooth="yes"/>
      <point x="329" y="502"/>
      <point x="366" y="462"/>
    </contour>
  </outline>
</glyph>
<glyph name="cent" format="1">
  <advance width="580"/>
  <unicode hex="00A2"/>
  <outline>
    <contour>
      <point x="230" y="38" type="line"/>
      <point x="355" y="38" type="line"/>
      <point x="340" y="-112" type="line"/>
      <point x="191" y="-112" type="line"/>
    </contour>
    <contour>
      <point x="259" y="230" type="curve" smooth="yes"/>
      <point x="246" y="158"/>
      <point x="295" y="124"/>
      <point x="353" y="124" type="curve" smooth="yes"/>
      <point x="411" y="124"/>
      <point x="457" y="154"/>
      <point x="493" y="190" type="curve"/>
      <point x="463" y="24" type="line"/>
      <point x="427" y="2"/>
      <point x="376" y="-10"/>
      <point x="313" y="-10" type="curve" smooth="yes"/>
      <point x="153" y="-10"/>
      <point x="55" y="82"/>
      <point x="81" y="230" type="curve" smooth="yes"/>
      <point x="107" y="378"/>
      <point x="238" y="470"/>
      <point x="398" y="470" type="curve" smooth="yes"/>
      <point x="461" y="470"/>
      <point x="508" y="456"/>
      <point x="536" y="436" type="curve"/>
      <point x="507" y="270" type="line"/>
      <point x="483" y="306"/>
      <point x="448" y="336"/>
      <point x="390" y="336" type="curve" smooth="yes"/>
      <point x="332" y="336"/>
      <point x="270" y="294"/>
    </contour>
    <contour>
      <point x="313" y="578" type="line"/>
      <point x="462" y="578" type="line"/>
      <point x="423" y="428" type="line"/>
      <point x="298" y="428" type="line"/>
    </contour>
  </outline>
</glyph>
<glyph name="sterling" format="1">
  <advance width="620"/>
  <unicode hex="00A3"/>
  <outline>
    <contour>
      <point x="132" y="370" type="line"/>
      <point x="517" y="370" type="line"/>
      <point x="498" y="262" type="line"/>
      <point x="113" y="262" type="line"/>
    </contour>
    <contour>
      <point x="511" y="462" type="line"/>
      <point x="515" y="510"/>
      <point x="507" y="561"/>
      <point x="437" y="561" type="curve" smooth="yes"/>
      <point x="393" y="561"/>
      <point x="351" y="540"/>
      <point x="342" y="488" type="curve" smooth="yes"/>
      <point x="329" y="412"/>
      <point x="415" y="384"/>
      <point x="395" y="272" type="curve" smooth="yes"/>
      <point x="376" y="166"/>
      <point x="223" y="70"/>
      <point x="145" y="50" type="curve"/>
      <point x="231" y="158" type="line"/>
      <point x="574" y="158" type="line"/>
      <point x="546" y="0" type="line"/>
      <point x="48" y="0" type="line"/>
      <point x="164" y="102"/>
      <point x="215" y="194"/>
      <point x="233" y="298" type="curve" smooth="yes"/>
      <point x="250" y="392"/>
      <point x="148" y="410"/>
      <point x="168" y="522" type="curve" smooth="yes"/>
      <point x="189" y="641"/>
      <point x="319" y="710"/>
      <point x="455" y="710" type="curve" smooth="yes"/>
      <point x="613" y="710"/>
      <point x="689" y="608"/>
      <point x="678" y="520" type="curve"/>
    </contour>
  </outline>
</glyph>
<glyph name="section" format="1">
  <advance width="628"/>
  <unicode hex="00A7"/>
  <outline>
    <contour>
      <point x="523" y="540" type="line"/>
      <point x="498" y="568"/>
      <point x="452" y="588"/>
      <point x="424" y="588" type="curve" smooth="yes"/>
      <point x="392" y="588"/>
      <point x="376" y="577"/>
      <point x="374" y="563" type="curve" smooth="yes"/>
      <point x="370" y="540"/>
      <point x="411" y="537"/>
      <point x="464" y="523" type="curve" smooth="yes"/>
      <point x="540" y="503"/>
      <point x="591" y="456"/>
      <point x="578" y="380" type="curve" smooth="yes"/>
      <point x="559" y="275"/>
      <point x="437" y="226"/>
      <point x="326" y="226" type="curve"/>
      <point x="333" y="269" type="line"/>
      <point x="368" y="277"/>
      <point x="411" y="298"/>
      <point x="418" y="338" type="curve" smooth="yes"/>
      <point x="428" y="393"/>
      <point x="355" y="410"/>
      <point x="307" y="430" type="curve" smooth="yes"/>
      <point x="255" y="452"/>
      <point x="197" y="489"/>
      <point x="212" y="575" type="curve" smooth="yes"/>
      <point x="230" y="677"/>
      <point x="342" y="728"/>
      <point x="436" y="728" type="curve" smooth="yes"/>
      <point x="518" y="728"/>
      <point x="594" y="694"/>
      <point x="618" y="656" type="curve"/>
    </contour>
    <contour>
      <point x="169" y="178" type="line"/>
      <point x="222" y="130"/>
      <point x="285" y="114"/>
      <point x="317" y="114" type="curve" smooth="yes"/>
      <point x="351" y="114"/>
      <point x="366" y="124"/>
      <point x="369" y="140" type="curve" smooth="yes"/>
      <point x="374" y="166"/>
      <point x="336" y="174"/>
      <point x="282" y="188" type="curve" smooth="yes"/>
      <point x="205" y="207"/>
      <point x="135" y="249"/>
      <point x="149" y="326" type="curve" smooth="yes"/>
      <point x="167" y="426"/>
      <point x="297" y="480"/>
      <point x="411" y="480" type="curve"/>
      <point x="403" y="438" type="line"/>
      <point x="365" y="426"/>
      <point x="326" y="410"/>
      <point x="319" y="369" type="curve" smooth="yes"/>
      <point x="309" y="311"/>
      <point x="393" y="303"/>
      <point x="440" y="282" type="curve" smooth="yes"/>
      <point x="500" y="255"/>
      <point x="555" y="214"/>
      <point x="540" y="130" type="curve" smooth="yes"/>
      <point x="521" y="22"/>
      <point x="402" y="-26"/>
      <point x="303" y="-26" type="curve" smooth="yes"/>
      <point x="185" y="-26"/>
      <point x="120" y="12"/>
      <point x="75" y="62" type="curve"/>
    </contour>
  </outline>
</glyph>
<glyph name="copyright" format="1">
  <advance width="800"/>
  <unicode hex="00A9"/>
  <outline>
    <contour>
      <point x="366" y="350" type="curve" smooth="yes"/>
      <point x="353" y="278"/>
      <point x="399" y="240"/>
      <point x="463" y="240" type="curve" smooth="yes"/>
      <point x="522" y="240"/>
      <point x="564" y="265"/>
      <point x="595" y="293" type="curve"/>
      <point x="573" y="170" type="line"/>
      <point x="535" y="146"/>
      <point x="496" y="129"/>
      <point x="435" y="129" type="curve" smooth="yes"/>
      <point x="295" y="129"/>
      <point x="215" y="218"/>
      <point x="238" y="350" type="curve" smooth="yes"/>
      <point x="261" y="482"/>
      <point x="373" y="571"/>
      <point x="513" y="571" type="curve" smooth="yes"/>
      <point x="574" y="571"/>
      <point x="606" y="554"/>
      <point x="636" y="530" type="curve"/>
      <point x="615" y="407" type="line"/>
      <point x="594" y="435"/>
      <point x="561" y="460"/>
      <point x="502" y="460" type="curve" smooth="yes"/>
      <point x="438" y="460"/>
      <point x="379" y="422"/>
    </contour>
    <contour>
      <point x="157" y="350" type="curve" smooth="yes"/>
      <point x="126" y="172"/>
      <point x="234" y="40"/>
      <point x="407" y="40" type="curve" smooth="yes"/>
      <point x="580" y="40"/>
      <point x="736" y="172"/>
      <point x="767" y="350" type="curve" smooth="yes"/>
      <point x="798" y="528"/>
      <point x="689" y="660"/>
      <point x="516" y="660" type="curve" smooth="yes"/>
      <point x="343" y="660"/>
      <point x="188" y="528"/>
    </contour>
    <contour>
      <point x="102" y="350" type="curve" smooth="yes"/>
      <point x="139" y="559"/>
      <point x="321" y="710"/>
      <point x="525" y="710" type="curve" smooth="yes"/>
      <point x="729" y="710"/>
      <point x="859" y="559"/>
      <point x="822" y="350" type="curve" smooth="yes"/>
      <point x="785" y="141"/>
      <point x="602" y="-10"/>
      <point x="398" y="-10" type="curve" smooth="yes"/>
      <point x="194" y="-10"/>
      <point x="65" y="141"/>
    </contour>
  </outline>
</glyph>
<glyph name="ordfeminine" format="1">
  <advance width="280"/>
  <unicode hex="00AA"/>
  <outline>
    <contour>
      <point x="197" y="530" type="curve" smooth="yes"/>
      <point x="195" y="516"/>
      <point x="205" y="508"/>
      <point x="222" y="508" type="curve" smooth="yes"/>
      <point x="245" y="508"/>
      <point x="270" y="520"/>
      <point x="276" y="554" type="curve"/>
      <point x="279" y="525" type="line"/>
      <point x="271" y="481"/>
      <point x="230" y="455"/>
      <point x="182" y="455" type="curve" smooth="yes"/>
      <point x="132" y="455"/>
      <point x="102" y="481"/>
      <point x="110" y="526" type="curve" smooth="yes"/>
      <point x="118" y="571"/>
      <point x="164" y="600"/>
      <point x="222" y="600" type="curve" smooth="yes"/>
      <point x="254" y="600"/>
      <point x="287" y="589"/>
      <point x="296" y="578" type="curve"/>
      <point x="289" y="538" type="line"/>
      <point x="275" y="550"/>
      <point x="261" y="556"/>
      <point x="236" y="556" type="curve" smooth="yes"/>
      <point x="216" y="556"/>
      <point x="200" y="545"/>
    </contour>
    <contour>
      <point x="174" y="618" type="curve"/>
      <point x="157" y="680" type="line"/>
      <point x="188" y="692"/>
      <point x="230" y="705"/>
      <point x="272" y="705" type="curve" smooth="yes"/>
      <point x="337" y="705"/>
      <point x="380" y="678"/>
      <point x="371" y="629" type="curve" smooth="yes"/>
      <point x="341" y="460" type="line"/>
      <point x="259" y="460" type="line"/>
      <point x="284" y="603" type="line" smooth="yes"/>
      <point x="287" y="622"/>
      <point x="277" y="638"/>
      <point x="252" y="638" type="curve" smooth="yes"/>
      <point x="219" y="638"/>
      <point x="186" y="624"/>
    </contour>
  </outline>
</glyph>
<glyph name="ordmasculine" format="1">
  <advance width="278"/>
  <unicode hex="00BA"/>
  <outline>
    <contour>
      <point x="120" y="580" type="curve" smooth="yes"/>
      <point x="133" y="653"/>
      <point x="198" y="700"/>
      <point x="276" y="700" type="curve" smooth="yes"/>
      <point x="354" y="700"/>
      <point x="404" y="653"/>
      <point x="391" y="580" type="curve" smooth="yes"/>
      <point x="378" y="507"/>
      <point x="312" y="460"/>
      <point x="234" y="460" type="curve" smooth="yes"/>
      <point x="156" y="460"/>
      <point x="107" y="507"/>
    </contour>
    <contour>
      <point x="209" y="580" type="curve" smooth="yes"/>
      <point x="203" y="548"/>
      <point x="221" y="530"/>
      <point x="246" y="530" type="curve" smooth="yes"/>
      <point x="271" y="530"/>
      <point x="296" y="548"/>
      <point x="302" y="580" type="curve" smooth="yes"/>
      <point x="308" y="612"/>
      <point x="289" y="630"/>
      <point x="264" y="630" type="curve" smooth="yes"/>
      <point x="239" y="630"/>
      <point x="215" y="612"/>
    </contour>
  </outline>
</glyph>
<glyph name="onequarter" format="1">
  <advance width="843"/>
  <unicode hex="00BC"/>
  <outline>
    <contour>
      <point x="757" y="700" type="line"/>
      <point x="863" y="700" type="line"/>
      <point x="220" y="0" type="line"/>
      <point x="114" y="0" type="line"/>
    </contour>
    <contour>
      <point x="121" y="560" type="line"/>
      <point x="138" y="660" type="line"/>
      <point x="366" y="702" type="line"/>
      <point x="290" y="274" type="line"/>
      <point x="178" y="274" type="line"/>
      <point x="233" y="586" type="line"/>
    </contour>
    <contour>
      <point x="423" y="72" type="line"/>
      <point x="532" y="154" type="line"/>
      <point x="719" y="154" type="line" smooth="yes"/>
      <point x="732" y="170" type="line" smooth="yes"/>
      <point x="844" y="170" type="line"/>
      <point x="827" y="72" type="line"/>
    </contour>
    <contour>
      <point x="546" y="110" type="line"/>
      <point x="423" y="72" type="line"/>
      <point x="731" y="420" type="line"/>
      <point x="822" y="420" type="line"/>
      <point x="748" y="0" type="line"/>
      <point x="627" y="0" type="line"/>
      <point x="644" y="94" type="line" smooth="yes"/>
      <point x="660" y="100" type="line" smooth="yes"/>
      <point x="689" y="264" type="line"/>
    </contour>
  </outline>
</glyph>
<glyph name="Aring" format="1">
  <advance width="757"/>
  <unicode hex="00C5"/>
  <outline>
    <contour>
      <point x="216" y="112" type="line"/>
      <point x="247" y="256" type="line"/>
      <point x="605" y="256" type="line"/>
      <point x="586" y="112" type="line"/>
    </contour>
    <contour>
      <point x="452" y="412" type="line"/>
      <point x="323" y="203" type="line"/>
      <point x="327" y="159" type="line"/>
      <point x="218" y="0" type="line"/>
      <point x="-4" y="0" type="line"/>
      <point x="511" y="747" type="line"/>
      <point x="760" y="0" type="line"/>
      <point x="540" y="0" type="line"/>
      <point x="487" y="152" type="line"/>
      <point x="507" y="202" type="line"/>
    </contour>
    <contour>
      <point x="387" y="801" type="curve" smooth="yes"/>
      <point x="400" y="873"/>
      <point x="466" y="922"/>
      <point x="541" y="922" type="curve" smooth="yes"/>
      <point x="616" y="922"/>
      <point x="664" y="873"/>
      <point x="651" y="801" type="curve" smooth="yes"/>
      <point x="638" y="729"/>
      <point x="573" y="681"/>
      <point x="498" y="681" type="curve" smooth="yes"/>
      <point x="423" y="681"/>
      <point x="374" y="729"/>
    </contour>
    <contour>
      <point x="475" y="801" type="curve" smooth="yes"/>
      <point x="470" y="772"/>
      <point x="486" y="756"/>
      <point x="511" y="756" type="curve" smooth="yes"/>
      <point x="536" y="756"/>
      <point x="560" y="772"/>
      <point x="565" y="801" type="curve" smooth="yes"/>
      <point x="570" y="830"/>
      <point x="553" y="848"/>
      <point x="528" y="848" type="curve" smooth="yes"/>
      <point x="503" y="848"/>
      <point x="480" y="830"/>
    </contour>
  </outline>
</glyph>
<glyph name="Ccedilla" format="1">
  <advance width="705"/>
  <unicode hex="00C7"/>
  <outline>
    <contour>
      <point x="308" y="350" type="curve" smooth="yes"/>
      <point x="287" y="232"/>
      <point x="363" y="166"/>
      <point x="469" y="166" type="curve" smooth="yes"/>
      <point x="568" y="166"/>
      <point x="636" y="210"/>
      <point x="689" y="256" type="curve"/>
      <point x="653" y="50" type="line"/>
      <point x="590" y="10"/>
      <point x="525" y="-18"/>
      <point x="423" y="-18" type="curve" smooth="yes"/>
      <point x="189" y="-18"/>
      <point x="55" y="129"/>
      <point x="94" y="350" type="curve" smooth="yes"/>
      <point x="133" y="571"/>
      <point x="319" y="718"/>
      <point x="553" y="718" type="curve" smooth="yes"/>
      <point x="655" y="718"/>
      <point x="710" y="690"/>
      <point x="759" y="650" type="curve"/>
      <point x="722" y="444" type="line"/>
      <point x="685" y="490"/>
      <point x="633" y="534"/>
      <point x="534" y="534" type="curve" smooth="yes"/>
      <point x="428" y="534"/>
      <point x="329" y="468"/>
    </contour>
    <contour>
      <point x="367" y="61" type="line"/>
      <point x="490" y="56" type="line"/>
      <point x="344" y="-100" type="line"/>
      <point x="242" y="-142" type="line"/>
    </contour>
    <contour>
      <point x="500" y="-169" type="curve"/>
      <point x="392" y="-158" type="line"/>
      <point x="397" y="-131"/>
      <point x="364" y="-126"/>
      <point x="334" y="-126" type="curve" smooth="yes"/>
      <point x="324" y="-126"/>
      <point x="284" y="-128"/>
      <point x="242" y="-142" type="curve"/>
      <point x="321" y="-96" type="line"/>
      <point x="354" y="-68"/>
      <point x="383" y="-64"/>
      <point x="421" y="-64" type="curve" smooth="yes"/>
      <point x="463" y="-64"/>
      <point x="513" y="-98"/>
    </contour>
    <contour>
      <point x="500" y="-169" type="line"/>
      <point x="487" y="-245"/>
      <point x="406" y="-282"/>
      <point x="340" y="-282" type="curve" smooth="yes"/>
      <point x="278" y="-282"/>
      <point x="234" y="-273"/>
      <point x="187" y="-243" type="curve"/>
      <point x="251" y="-165" type="line"/>
      <point x="276" y="-184"/>
      <point x="312" y="-191"/>
      <point x="330" y="-191" type="curve" smooth="yes"/>
      <point x="364" y="-191"/>
      <point x="388" y="-182"/>
      <point x="392" y="-158" type="curve"/>
    </contour>
  </outline>
</glyph>
<glyph name="Ecircumflex" format="1">
  <advance width="619"/>
  <unicode hex="00CA"/>
  <outline>
    <contour>
      <point x="204" y="0" type="line"/>
      <point x="232" y="158" type="line"/>
      <point x="586" y="158" type="line"/>
      <point x="558" y="0" type="line"/>
    </contour>
    <contour>
      <point x="300" y="542" type="line"/>
      <point x="327" y="700" type="line"/>
      <point x="681" y="700" type="line"/>
      <point x="654" y="542" type="line"/>
    </contour>
    <contour>
      <point x="255" y="288" type="line"/>
      <point x="282" y="440" type="line"/>
      <point x="616" y="440" type="line"/>
      <point x="589" y="288" type="line"/>
    </contour>
    <contour>
      <point x="195" y="700" type="line"/>
      <point x="381" y="700" type="line"/>
      <point x="258" y="0" type="line"/>
      <point x="72" y="0" type="line"/>
    </contour>
    <contour>
      <point x="473" y="890" type="line"/>
      <point x="346" y="794" type="line"/>
      <point x="303" y="834" type="line"/>
      <point x="488" y="974" type="line"/>
      <point x="623" y="834" type="line"/>
      <point x="566" y="794" type="line"/>
    </contour>
  </outline>
</glyph>
<glyph name="Edieresis" format="1">
  <advance width="619"/>
  <unicode hex="00CB"/>
  <outline>
    <contour>
      <point x="204" y="0" type="line"/>
      <point x="232" y="158" type="line"/>
      <point x="586" y="158" type="line"/>
      <point x="558" y="0" type="line"/>
    </contour>
    <contour>
      <point x="300" y="542" type="line"/>
      <point x="327" y="700" type="line"/>
      <point x="681" y="700" type="line"/>
      <point x="654" y="542" type="line"/>
    </contour>
    <contour>
      <point x="255" y="288" type="line"/>
      <point x="282" y="440" type="line"/>
      <point x="616" y="440" type="line"/>
      <point x="589" y="288" type="line"/>
    </contour>
    <contour>
      <point x="195" y="700" type="line"/>
      <point x="381" y="700" type="line"/>
      <point x="258" y="0" type="line"/>
      <point x="72" y="0" type="line"/>
    </contour>
    <contour>
      <point x="495" y="886" type="curve" smooth="yes"/>
      <point x="505" y="942"/>
      <point x="558" y="990"/>
      <point x="620" y="990" type="curve" smooth="yes"/>
      <point x="682" y="990"/>
      <point x="718" y="942"/>
      <point x="708" y="886" type="curve" smooth="yes"/>
      <point x="698" y="830"/>
      <point x="645" y="782"/>
      <point x="583" y="782" type="curve" smooth="yes"/>
      <point x="521" y="782"/>
      <point x="485" y="830"/>
    </contour>
    <contour>
      <point x="238" y="886" type="curve" smooth="yes"/>
      <point x="248" y="942"/>
      <point x="301" y="990"/>
      <point x="363" y="990" type="curve" smooth="yes"/>
      <point x="425" y="990"/>
      <point x="460" y="942"/>
      <point x="450" y="886" type="curve" smooth="yes"/>
      <point x="440" y="830"/>
      <point x="388" y="782"/>
      <point x="326" y="782" type="curve" smooth="yes"/>
      <point x="264" y="782"/>
      <point x="228" y="830"/>
    </contour>
  </outline>
</glyph>
<glyph name="Ntilde" format="1">
  <advance width="799"/>
  <unicode hex="00D1"/>
  <outline>
    <contour>
      <point x="164" y="500" type="line"/>
      <point x="202" y="735" type="line"/>
      <point x="757" y="200" type="line"/>
      <point x="722" y="-35" type="line"/>
    </contour>
    <contour>
      <point x="664" y="700" type="line"/>
      <point x="851" y="700" type="line"/>
      <point x="722" y="-35" type="line"/>
      <point x="571" y="172" type="line"/>
    </contour>
    <contour>
      <point x="202" y="735" type="line"/>
      <point x="351" y="528" type="line"/>
      <point x="258" y="0" type="line"/>
      <point x="72" y="0" type="line"/>
    </contour>
    <contour>
      <point x="376" y="854" type="line"/>
      <point x="395" y="903"/>
      <point x="449" y="936"/>
      <point x="494" y="936" type="curve" smooth="yes"/>
      <point x="559" y="936"/>
      <point x="556" y="888"/>
      <point x="610" y="888" type="curve" smooth="yes"/>
      <point x="629" y="888"/>
      <point x="648" y="904"/>
      <point x="674" y="936" type="curve"/>
      <point x="713" y="894" type="line"/>
      <point x="690" y="857"/>
      <point x="644" y="820"/>
      <point x="594" y="820" type="curve" smooth="yes"/>
      <point x="539" y="820"/>
      <point x="526" y="868"/>
      <point x="481" y="868" type="curve" smooth="yes"/>
      <point x="440" y="868"/>
      <point x="425" y="831"/>
      <point x="422" y="816" type="curve"/>
    </contour>
  </outline>
</glyph>
<glyph name="multiply" format="1">
  <advance width="596"/>
  <unicode hex="00D7"/>
  <outline>
    <contour>
      <point x="146" y="-2" type="line"/>
      <point x="58" y="102" type="line"/>
      <point x="243" y="255" type="line"/>
      <point x="112" y="408" type="line"/>
      <point x="236" y="512" type="line"/>
      <point x="361" y="356" type="line"/>
      <point x="540" y="512" type="line"/>
      <point x="628" y="408" type="line"/>
      <point x="443" y="255" type="line"/>
      <point x="574" y="102" type="line"/>
      <point x="450" y="-2" type="line"/>
      <point x="325" y="154" type="line"/>
    </contour>
  </outline>
</glyph>
<glyph name="germandbls" format="1">
  <advance width="598"/>
  <unicode hex="00DF"/>
  <outline>
    <contour>
      <point x="155" y="606" type="line"/>
      <point x="315" y="582" type="line"/>
      <point x="212" y="0" type="line"/>
      <point x="48" y="0" type="line"/>
    </contour>
    <contour>
      <point x="344" y="408" type="curve"/>
      <point x="362" y="512" type="line"/>
      <point x="440" y="512"/>
      <point x="463" y="540"/>
      <point x="470" y="580" type="curve" smooth="yes"/>
      <point x="477" y="622"/>
      <point x="452" y="642"/>
      <point x="402" y="642" type="curve" smooth="yes"/>
      <point x="350" y="642"/>
      <point x="321" y="618"/>
      <point x="315" y="582" type="curve"/>
      <point x="155" y="606" type="line"/>
      <point x="177" y="732"/>
      <point x="300" y="798"/>
      <point x="430" y="798" type="curve" smooth="yes"/>
      <point x="590" y="798"/>
      <point x="660" y="715"/>
      <point x="641" y="606" type="curve" smooth="yes"/>
      <point x="620" y="487"/>
      <point x="516" y="408"/>
    </contour>
    <contour>
      <point x="310" y="146" type="line"/>
      <point x="390" y="146"/>
      <point x="442" y="194"/>
      <point x="454" y="260" type="curve" smooth="yes"/>
      <point x="464" y="314"/>
      <point x="445" y="356"/>
      <point x="335" y="356" type="curve"/>
      <point x="356" y="476" type="line"/>
      <point x="528" y="476"/>
      <point x="650" y="381"/>
      <point x="622" y="225" type="curve" smooth="yes"/>
      <point x="594" y="69"/>
      <point x="466" y="-10"/>
      <point x="282" y="-10" type="curve"/>
    </contour>
  </outline>
</glyph>
<glyph name="adieresis" format="1">
  <advance width="562"/>
  <unicode hex="00E4"/>
  <outline>
    <contour>
      <point x="220" y="138" type="curve" smooth="yes"/>
      <point x="215" y="109"/>
      <point x="237" y="98"/>
      <point x="269" y="98" type="curve" smooth="yes"/>
      <point x="317" y="98"/>
      <point x="366" y="118"/>
      <point x="378" y="188" type="curve"/>
      <point x="384" y="130" type="line"/>
      <point x="368" y="41"/>
      <point x="285" y="-10"/>
      <point x="190" y="-10" type="curve" smooth="yes"/>
      <point x="86" y="-10"/>
      <point x="29" y="41"/>
      <point x="45" y="129" type="curve" smooth="yes"/>
      <point x="61" y="219"/>
      <point x="151" y="277"/>
      <point x="271" y="277" type="curve" smooth="yes"/>
      <point x="335" y="277"/>
      <point x="401" y="255"/>
      <point x="419" y="232" type="curve"/>
      <point x="405" y="152" type="line"/>
      <point x="378" y="176"/>
      <point x="349" y="188"/>
      <point x="299" y="188" type="curve" smooth="yes"/>
      <point x="256" y="188"/>
      <point x="225" y="168"/>
    </contour>
    <contour>
      <point x="174" y="308" type="curve"/>
      <point x="138" y="422" type="line"/>
      <point x="200" y="447"/>
      <point x="285" y="474"/>
      <point x="368" y="474" type="curve" smooth="yes"/>
      <point x="498" y="474"/>
      <point x="584" y="420"/>
      <point x="567" y="322" type="curve" smooth="yes"/>
      <point x="510" y="0" type="line"/>
      <point x="345" y="0" type="line"/>
      <point x="395" y="283" type="line" smooth="yes"/>
      <point x="402" y="320"/>
      <point x="379" y="346"/>
      <point x="329" y="346" type="curve" smooth="yes"/>
      <point x="263" y="346"/>
      <point x="198" y="320"/>
    </contour>
    <contour>
      <point x="419" y="638" type="curve" smooth="yes"/>
      <point x="429" y="694"/>
      <point x="482" y="742"/>
      <point x="544" y="742" type="curve" smooth="yes"/>
      <point x="606" y="742"/>
      <point x="641" y="694"/>
      <point x="631" y="638" type="curve" smooth="yes"/>
      <point x="621" y="582"/>
      <point x="569" y="534"/>
      <point x="507" y="534" type="curve" smooth="yes"/>
      <point x="445" y="534"/>
      <point x="409" y="582"/>
    </contour>
    <contour>
      <point x="162" y="638" type="curve" smooth="yes"/>
      <point x="172" y="694"/>
      <point x="225" y="742"/>
      <point x="287" y="742" type="curve" smooth="yes"/>
      <point x="349" y="742"/>
      <point x="384" y="694"/>
      <point x="374" y="638" type="curve" smooth="yes"/>
      <point x="364" y="582"/>
      <point x="312" y="534"/>
      <point x="250" y="534" type="curve" smooth="yes"/>
      <point x="188" y="534"/>
      <point x="152" y="582"/>
    </contour>
  </outline>
</glyph>
<glyph name="aring" format="1">
  <advance width="562"/>
  <unicode hex="00E5"/>
  <outline>
    <contour>
      <point x="220" y="138" type="curve" smooth="yes"/>
      <point x="215" y="109"/>
      <point x="237" y="98"/>
      <point x="269" y="98" type="curve" smooth="yes"/>
      <point x="317" y="98"/>
      <point x="366" y="118"/>
      <point x="378" y="188" type="curve"/>
      <point x="384" y="130" type="line"/>
      <point x="368" y="41"/>
      <point x="285" y="-10"/>
      <point x="190" y="-10" type="curve" smooth="yes"/>
      <point x="86" y="-10"/>
      <point x="29" y="41"/>
      <point x="45" y="129" type="curve" smooth="yes"/>
      <point x="61" y="219"/>
      <point x="151" y="277"/>
      <point x="271" y="277" type="curve" smooth="yes"/>
      <point x="335" y="277"/>
      <point x="401" y="255"/>
      <point x="419" y="232" type="curve"/>
      <point x="405" y="152" type="line"/>
      <point x="378" y="176"/>
      <point x="349" y="188"/>
      <point x="299" y="188" type="curve" smooth="yes"/>
      <point x="256" y="188"/>
      <point x="225" y="168"/>
    </contour>
    <contour>
      <point x="174" y="308" type="curve"/>
      <point x="138" y="422" type="line"/>
      <point x="200" y="447"/>
      <point x="285" y="474"/>
      <point x="368" y="474" type="curve" smooth="yes"/>
      <point x="498" y="474"/>
      <point x="584" y="420"/>
      <point x="567" y="322" type="curve" smooth="yes"/>
      <point x="510" y="0" type="line"/>
      <point x="345" y="0" type="line"/>
      <point x="395" y="283" type="line" smooth="yes"/>
      <point x="402" y="320"/>
      <point x="379" y="346"/>
      <point x="329" y="346" type="curve" smooth="yes"/>
      <point x="263" y="346"/>
      <point x="198" y="320"/>
    </contour>
    <contour>
      <point x="267" y="654" type="curve" smooth="yes"/>
      <point x="280" y="726"/>
      <point x="345" y="774"/>
      <point x="420" y="774" type="curve" smooth="yes"/>
      <point x="495" y="774"/>
      <point x="544" y="726"/>
      <point x="531" y="654" type="curve" smooth="yes"/>
      <point x="518" y="582"/>
      <point x="453" y="534"/>
      <point x="378" y="534" type="curve" smooth="yes"/>
      <point x="303" y="534"/>
      <point x="254" y="582"/>
    </contour>
    <contour>
      <point x="355" y="654" type="curve" smooth="yes"/>
      <point x="350" y="625"/>
      <point x="366" y="609"/>
      <point x="391" y="609" type="curve" smooth="yes"/>
      <point x="416" y="609"/>
      <point x="439" y="625"/>
      <point x="444" y="654" type="curve" smooth="yes"/>
      <point x="449" y="683"/>
      <point x="432" y="700"/>
      <point x="407" y="700" type="curve" smooth="yes"/>
      <point x="382" y="700"/>
      <point x="360" y="683"/>
    </contour>
  </outline>
</glyph>
<glyph name="ccedilla" format="1">
  <advance width="498"/>
  <unicode hex="00E7"/>
  <outline>
    <contour>
      <point x="249" y="230" type="curve" smooth="yes"/>
      <point x="237" y="162"/>
      <point x="280" y="124"/>
      <point x="342" y="124" type="curve" smooth="yes"/>
      <point x="392" y="124"/>
      <point x="443" y="144"/>
      <point x="481" y="188" type="curve"/>
      <point x="453" y="26" type="line"/>
      <point x="417" y="4"/>
      <point x="374" y="-10"/>
      <point x="302" y="-10" type="curve" smooth="yes"/>
      <point x="142" y="-10"/>
      <point x="45" y="82"/>
      <point x="71" y="230" type="curve" smooth="yes"/>
      <point x="97" y="378"/>
      <point x="227" y="470"/>
      <point x="387" y="470" type="curve" smooth="yes"/>
      <point x="459" y="470"/>
      <point x="496" y="454"/>
      <point x="525" y="436" type="curve"/>
      <point x="496" y="273" type="line"/>
      <point x="474" y="317"/>
      <point x="421" y="336"/>
      <point x="379" y="336" type="curve" smooth="yes"/>
      <point x="317" y="336"/>
      <point x="260" y="290"/>
    </contour>
    <contour>
      <point x="234" y="94" type="line"/>
      <point x="358" y="89" type="line"/>
      <point x="212" y="-68" type="line"/>
      <point x="109" y="-110" type="line"/>
    </contour>
    <contour>
      <point x="367" y="-136" type="curve"/>
      <point x="260" y="-125" type="line"/>
      <point x="265" y="-98"/>
      <point x="231" y="-94"/>
      <point x="201" y="-94" type="curve" smooth="yes"/>
      <point x="191" y="-94"/>
      <point x="151" y="-96"/>
      <point x="109" y="-110" type="curve"/>
      <point x="189" y="-64" type="line"/>
      <point x="222" y="-36"/>
      <point x="250" y="-32"/>
      <point x="288" y="-32" type="curve" smooth="yes"/>
      <point x="330" y="-32"/>
      <point x="380" y="-65"/>
    </contour>
    <contour>
      <point x="367" y="-136" type="line"/>
      <point x="354" y="-212"/>
      <point x="274" y="-250"/>
      <point x="208" y="-250" type="curve" smooth="yes"/>
      <point x="146" y="-250"/>
      <point x="102" y="-240"/>
      <point x="55" y="-210" type="curve"/>
      <point x="119" y="-133" type="line"/>
      <point x="144" y="-152"/>
      <point x="180" y="-158"/>
      <point x="198" y="-158" type="curve" smooth="yes"/>
      <point x="232" y="-158"/>
      <point x="256" y="-149"/>
      <point x="260" y="-125" type="curve"/>
    </contour>
  </outline>
</glyph>
<glyph name="egrave" format="1">
  <advance width="591"/>
  <unicode hex="00E8"/>
  <outline>
    <contour>
      <point x="130" y="194" type="line"/>
      <point x="146" y="283" type="line"/>
      <point x="590" y="283" type="line"/>
      <point x="590" y="194" type="line"/>
    </contour>
    <contour>
      <point x="418" y="242" type="line" smooth="yes"/>
      <point x="432" y="320"/>
      <point x="417" y="360"/>
      <point x="359" y="360" type="curve" smooth="yes"/>
      <point x="303" y="360"/>
      <point x="264" y="322"/>
      <point x="252" y="252" type="curve"/>
      <point x="247" y="230" type="line"/>
      <point x="231" y="140"/>
      <point x="269" y="110"/>
      <point x="319" y="110" type="curve" smooth="yes"/>
      <point x="369" y="110"/>
      <point x="408" y="128"/>
      <point x="433" y="162" type="curve"/>
      <point x="585" y="132" type="line"/>
      <point x="524" y="46"/>
      <point x="440" y="-10"/>
      <point x="304" y="-10" type="curve" smooth="yes"/>
      <point x="122" y="-10"/>
      <point x="47" y="91"/>
      <point x="72" y="230" type="curve" smooth="yes"/>
      <point x="75" y="247"/>
      <point x="78" y="263"/>
      <point x="84" y="279" type="curve" smooth="yes"/>
      <point x="123" y="392"/>
      <point x="223" y="470"/>
      <point x="383" y="470" type="curve" smooth="yes"/>
      <point x="553" y="470"/>
      <point x="626" y="383"/>
      <point x="600" y="238" type="curve" smooth="yes"/>
      <point x="599" y="230"/>
      <point x="595" y="212"/>
      <point x="590" y="194" type="curve"/>
      <point x="413" y="214" type="line"/>
    </contour>
    <contour>
      <point x="261" y="684" type="line"/>
      <point x="398" y="740" type="line"/>
      <point x="520" y="580" type="line"/>
      <point x="414" y="534" type="line"/>
    </contour>
  </outline>
</glyph>
<glyph name="edieresis" format="1">
  <advance width="591"/>
  <unicode hex="00EB"/>
  <outline>
    <contour>
      <point x="130" y="194" type="line"/>
      <point x="146" y="283" type="line"/>
      <point x="590" y="283" type="line"/>
      <point x="590" y="194" type="line"/>
    </contour>
    <contour>
      <point x="418" y="242" type="line" smooth="yes"/>
      <point x="432" y="320"/>
      <point x="417" y="360"/>
      <point x="359" y="360" type="curve" smooth="yes"/>
      <point x="303" y="360"/>
      <point x="264" y="322"/>
      <point x="252" y="252" type="curve"/>
      <point x="247" y="230" type="line"/>
      <point x="231" y="140"/>
      <point x="269" y="110"/>
      <point x="319" y="110" type="curve" smooth="yes"/>
      <point x="369" y="110"/>
      <point x="408" y="128"/>
      <point x="433" y="162" type="curve"/>
      <point x="585" y="132" type="line"/>
      <point x="524" y="46"/>
      <point x="440" y="-10"/>
      <point x="304" y="-10" type="curve" smooth="yes"/>
      <point x="122" y="-10"/>
      <point x="47" y="91"/>
      <point x="72" y="230" type="curve" smooth="yes"/>
      <point x="75" y="247"/>
      <point x="78" y="263"/>
      <point x="84" y="279" type="curve" smooth="yes"/>
      <point x="123" y="392"/>
      <point x="223" y="470"/>
      <point x="383" y="470" type="curve" smooth="yes"/>
      <point x="553" y="470"/>
      <point x="626" y="383"/>
      <point x="600" y="238" type="curve" smooth="yes"/>
      <point x="599" y="230"/>
      <point x="595" y="212"/>
      <point x="590" y="194" type="curve"/>
      <point x="413" y="214" type="line"/>
    </contour>
    <contour>
      <point x="434" y="634" type="curve" smooth="yes"/>
      <point x="444" y="690"/>
      <point x="496" y="738"/>
      <point x="558" y="738" type="curve" smooth="yes"/>
      <point x="620" y="738"/>
      <point x="656" y="690"/>
      <point x="646" y="634" type="curve" smooth="yes"/>
      <point x="636" y="578"/>
      <point x="583" y="530"/>
      <point x="521" y="530" type="curve" smooth="yes"/>
      <point x="459" y="530"/>
      <point x="424" y="578"/>
    </contour>
    <contour>
      <point x="177" y="634" type="curve" smooth="yes"/>
      <point x="187" y="690"/>
      <point x="240" y="738"/>
      <point x="302" y="738" type="curve" smooth="yes"/>
      <point x="364" y="738"/>
      <point x="400" y="690"/>
      <point x="390" y="634" type="curve" smooth="yes"/>
      <point x="380" y="578"/>
      <point x="327" y="530"/>
      <point x="265" y="530" type="curve" smooth="yes"/>
      <point x="203" y="530"/>
      <point x="167" y="578"/>
    </contour>
  </outline>
</glyph>
<glyph name="igrave" format="1">
  <advance width="281"/>
  <unicode hex="00EC"/>
  <outline>
    <contour>
      <point x="137" y="460" type="line"/>
      <point x="305" y="460" type="line"/>
      <point x="224" y="0" type="line"/>
      <point x="56" y="0" type="line"/>
    </contour>
    <contour>
      <point x="75" y="684" type="line"/>
      <point x="212" y="740" type="line"/>
      <point x="334" y="580" type="line"/>
      <point x="228" y="534" type="line"/>
    </contour>
  </outline>
</glyph>
<glyph name="idieresis" format="1">
  <advance width="281"/>
  <unicode hex="00EF"/>
  <outline>
    <contour>
      <point x="137" y="460" type="line"/>
      <point x="305" y="460" type="line"/>
      <point x="224" y="0" type="line"/>
      <point x="56" y="0" type="line"/>
    </contour>
    <contour>
      <point x="276" y="640" type="curve" smooth="yes"/>
      <point x="286" y="696"/>
      <point x="338" y="744"/>
      <point x="400" y="744" type="curve" smooth="yes"/>
      <point x="462" y="744"/>
      <point x="498" y="696"/>
      <point x="488" y="640" type="curve" smooth="yes"/>
      <point x="478" y="584"/>
      <point x="426" y="536"/>
      <point x="364" y="536" type="curve" smooth="yes"/>
      <point x="302" y="536"/>
      <point x="266" y="584"/>
    </contour>
    <contour>
      <point x="19" y="640" type="curve" smooth="yes"/>
      <point x="29" y="696"/>
      <point x="81" y="744"/>
      <point x="143" y="744" type="curve" smooth="yes"/>
      <point x="205" y="744"/>
      <point x="241" y="696"/>
      <point x="231" y="640" type="curve" smooth="yes"/>
      <point x="221" y="584"/>
      <point x="169" y="536"/>
      <point x="107" y="536" type="curve" smooth="yes"/>
      <point x="45" y="536"/>
      <point x="9" y="584"/>
    </contour>
  </outline>
</glyph>
<glyph name="oacute" format="1">
  <advance width="602"/>
  <unicode hex="00F3"/>
  <outline>
    <contour>
      <point x="72" y="230" type="curve" smooth="yes"/>
      <point x="98" y="378"/>
      <point x="230" y="470"/>
      <point x="385" y="470" type="curve" smooth="yes"/>
      <point x="540" y="470"/>
      <point x="639" y="378"/>
      <point x="613" y="230" type="curve" smooth="yes"/>
      <point x="587" y="82"/>
      <point x="455" y="-10"/>
      <point x="300" y="-10" type="curve" smooth="yes"/>
      <point x="145" y="-10"/>
      <point x="46" y="82"/>
    </contour>
    <contour>
      <point x="251" y="230" type="curve" smooth="yes"/>
      <point x="240" y="166"/>
      <point x="275" y="130"/>
      <point x="325" y="130" type="curve" smooth="yes"/>
      <point x="375" y="130"/>
      <point x="424" y="166"/>
      <point x="435" y="230" type="curve" smooth="yes"/>
      <point x="446" y="294"/>
      <point x="410" y="331"/>
      <point x="360" y="331" type="curve" smooth="yes"/>
      <point x="310" y="331"/>
      <point x="262" y="294"/>
    </contour>
    <contour>
      <point x="583" y="684" type="line"/>
      <point x="376" y="534" type="line"/>
      <point x="286" y="580" type="line"/>
      <point x="464" y="740" type="line"/>
    </contour>
  </outline>
</glyph>
<glyph name="otilde" format="1">
  <advance width="602"/>
  <unicode hex="00F5"/>
  <outline>
    <contour>
      <point x="72" y="230" type="curve" smooth="yes"/>
      <point x="98" y="378"/>
      <point x="230" y="470"/>
      <point x="385" y="470" type="curve" smooth="yes"/>
      <point x="540" y="470"/>
      <point x="639" y="378"/>
      <point x="613" y="230" type="curve" smooth="yes"/>
      <point x="587" y="82"/>
      <point x="455" y="-10"/>
      <point x="300" y="-10" type="curve" smooth="yes"/>
      <point x="145" y="-10"/>
      <point x="46" y="82"/>
    </contour>
    <contour>
      <point x="251" y="230" type="curve" smooth="yes"/>
      <point x="240" y="166"/>
      <point x="275" y="130"/>
      <point x="325" y="130" type="curve" smooth="yes"/>
      <point x="375" y="130"/>
      <point x="424" y="166"/>
      <point x="435" y="230" type="curve" smooth="yes"/>
      <point x="446" y="294"/>
      <point x="410" y="331"/>
      <point x="360" y="331" type="curve" smooth="yes"/>
      <point x="310" y="331"/>
      <point x="262" y="294"/>
    </contour>
    <contour>
      <point x="203" y="605" type="line"/>
      <point x="222" y="654"/>
      <point x="274" y="704"/>
      <point x="344" y="704" type="curve" smooth="yes"/>
      <point x="410" y="704"/>
      <point x="418" y="650"/>
      <point x="475" y="650" type="curve" smooth="yes"/>
      <point x="503" y="650"/>
      <point x="526" y="672"/>
      <point x="552" y="704" type="curve"/>
      <point x="616" y="621" type="line"/>
      <point x="593" y="584"/>
      <point x="524" y="532"/>
      <point x="458" y="532" type="curve" smooth="yes"/>
      <point x="403" y="532"/>
      <point x="375" y="587"/>
      <point x="324" y="587" type="curve" smooth="yes"/>
      <point x="287" y="587"/>
      <point x="271" y="551"/>
      <point x="268" y="536" type="curve"/>
    </contour>
  </outline>
</glyph>
<glyph name="odieresis" format="1">
  <advance width="602"/>
  <unicode hex="00F6"/>
  <outline>
    <contour>
      <point x="72" y="230" type="curve" smooth="yes"/>
      <point x="98" y="378"/>
      <point x="230" y="470"/>
      <point x="385" y="470" type="curve" smooth="yes"/>
      <point x="540" y="470"/>
      <point x="639" y="378"/>
      <point x="613" y="230" type="curve" smooth="yes"/>
      <point x="587" y="82"/>
      <point x="455" y="-10"/>
      <point x="300" y="-10" type="curve" smooth="yes"/>
      <point x="145" y="-10"/>
      <point x="46" y="82"/>
    </contour>
    <contour>
      <point x="251" y="230" type="curve" smooth="yes"/>
      <point x="240" y="166"/>
      <point x="275" y="130"/>
      <point x="325" y="130" type="curve" smooth="yes"/>
      <point x="375" y="130"/>
      <point x="424" y="166"/>
      <point x="435" y="230" type="curve" smooth="yes"/>
      <point x="446" y="294"/>
      <point x="410" y="331"/>
      <point x="360" y="331" type="curve" smooth="yes"/>
      <point x="310" y="331"/>
      <point x="262" y="294"/>
    </contour>
    <contour>
      <point x="437" y="640" type="curve" smooth="yes"/>
      <point x="447" y="696"/>
      <point x="499" y="744"/>
      <point x="561" y="744" type="curve" smooth="yes"/>
      <point x="623" y="744"/>
      <point x="659" y="696"/>
      <point x="649" y="640" type="curve" smooth="yes"/>
      <point x="639" y="584"/>
      <point x="587" y="536"/>
      <point x="525" y="536" type="curve" smooth="yes"/>
      <point x="463" y="536"/>
      <point x="427" y="584"/>
    </contour>
    <contour>
      <point x="179" y="640" type="curve" smooth="yes"/>
      <point x="189" y="696"/>
      <point x="242" y="744"/>
      <point x="304" y="744" type="curve" smooth="yes"/>
      <point x="366" y="744"/>
      <point x="403" y="696"/>
      <point x="393" y="640" type="curve" smooth="yes"/>
      <point x="383" y="584"/>
      <point x="330" y="536"/>
      <point x="268" y="536" type="curve" smooth="yes"/>
      <point x="206" y="536"/>
      <point x="169" y="584"/>
    </contour>
  </outline>
</glyph>
<glyph name="ugrave" format="1">
  <advance width="590"/>
  <unicode hex="00F9"/>
  <outline>
    <contour>
      <point x="362" y="0" type="line"/>
      <point x="443" y="460" type="line"/>
      <point x="617" y="460" type="line"/>
      <point x="536" y="0" type="line"/>
    </contour>
    <contour>
      <point x="268" y="180" type="line" smooth="yes"/>
      <point x="260" y="132"/>
      <point x="268" y="105"/>
      <point x="313" y="105" type="curve" smooth="yes"/>
      <point x="355" y="105"/>
      <point x="385" y="130"/>
      <point x="394" y="180" type="curve"/>
      <point x="423" y="188" type="line"/>
      <point x="404" y="79"/>
      <point x="339" y="-10"/>
      <point x="219" y="-10" type="curve" smooth="yes"/>
      <point x="99" y="-10"/>
      <point x="65" y="52"/>
      <point x="84" y="162" type="curve" smooth="yes"/>
      <point x="136" y="460" type="line"/>
      <point x="317" y="460" type="line"/>
    </contour>
    <contour>
      <point x="263" y="684" type="line"/>
      <point x="400" y="740" type="line"/>
      <point x="522" y="580" type="line"/>
      <point x="416" y="534" type="line"/>
    </contour>
  </outline>
</glyph>
<glyph name="udieresis" format="1">
  <advance width="590"/>
  <unicode hex="00FC"/>
  <outline>
    <contour>
      <point x="362" y="0" type="line"/>
      <point x="443" y="460" type="line"/>
      <point x="617" y="460" type="line"/>
      <point x="536" y="0" type="line"/>
    </contour>
    <contour>
      <point x="268" y="180" type="line" smooth="yes"/>
      <point x="260" y="132"/>
      <point x="268" y="105"/>
      <point x="313" y="105" type="curve" smooth="yes"/>
      <point x="355" y="105"/>
      <point x="385" y="130"/>
      <point x="394" y="180" type="curve"/>
      <point x="423" y="188" type="line"/>
      <point x="404" y="79"/>
      <point x="339" y="-10"/>
      <point x="219" y="-10" type="curve" smooth="yes"/>
      <point x="99" y="-10"/>
      <point x="65" y="52"/>
      <point x="84" y="162" type="curve" smooth="yes"/>
      <point x="136" y="460" type="line"/>
      <point x="317" y="460" type="line"/>
    </contour>
    <contour>
      <point x="430" y="638" type="curve" smooth="yes"/>
      <point x="440" y="694"/>
      <point x="493" y="742"/>
      <point x="555" y="742" type="curve" smooth="yes"/>
      <point x="617" y="742"/>
      <point x="652" y="694"/>
      <point x="642" y="638" type="curve" smooth="yes"/>
      <point x="632" y="582"/>
      <point x="580" y="534"/>
      <point x="518" y="534" type="curve" smooth="yes"/>
      <point x="456" y="534"/>
      <point x="420" y="582"/>
    </contour>
    <contour>
      <point x="173" y="638" type="curve" smooth="yes"/>
      <point x="183" y="694"/>
      <point x="236" y="742"/>
      <point x="298" y="742" type="curve" smooth="yes"/>
      <point x="360" y="742"/>
      <point x="395" y="694"/>
      <point x="385" y="638" type="curve" smooth="yes"/>
      <point x="375" y="582"/>
      <point x="323" y="534"/>
      <point x="261" y="534" type="curve" smooth="yes"/>
      <point x="199" y="534"/>
      <point x="163" y="582"/>
    </contour>
  </outline>
</glyph>
<glyph name="thorn" format="1">
  <advance width="630"/>
  <unicode hex="00FE"/>
  <outline>
    <contour>
      <point x="332" y="592" type="line"/>
      <point x="173" y="-220" type="line"/>
      <point x="48" y="-32" type="line"/>
      <point x="207" y="780" type="line"/>
    </contour>
    <contour>
      <point x="641" y="230" type="curve" smooth="yes"/>
      <point x="613" y="72"/>
      <point x="490" y="-10"/>
      <point x="382" y="-10" type="curve" smooth="yes"/>
      <point x="267" y="-10"/>
      <point x="198" y="81"/>
      <point x="224" y="230" type="curve" smooth="yes"/>
      <point x="250" y="379"/>
      <point x="352" y="470"/>
      <point x="467" y="470" type="curve" smooth="yes"/>
      <point x="575" y="470"/>
      <point x="669" y="388"/>
    </contour>
    <contour>
      <point x="459" y="230" type="curve" smooth="yes"/>
      <point x="470" y="292"/>
      <point x="433" y="334"/>
      <point x="381" y="334" type="curve" smooth="yes"/>
      <point x="335" y="334"/>
      <point x="281" y="296"/>
      <point x="269" y="230" type="curve" smooth="yes"/>
      <point x="257" y="164"/>
      <point x="298" y="126"/>
      <point x="344" y="126" type="curve" smooth="yes"/>
      <point x="396" y="126"/>
      <point x="448" y="168"/>
    </contour>
  </outline>
</glyph>
<glyph name="ydieresis" format="1">
  <advance width="545"/>
  <unicode hex="00FF"/>
  <outline>
    <contour>
      <point x="639" y="460" type="line"/>
      <point x="219" y="-220" type="line"/>
      <point x="47" y="-220" type="line"/>
      <point x="199" y="28" type="line"/>
      <point x="69" y="460" type="line"/>
      <point x="257" y="460" type="line"/>
      <point x="342" y="88" type="line"/>
      <point x="250" y="88" type="line"/>
      <point x="463" y="460" type="line"/>
    </contour>
    <contour>
      <point x="407" y="634" type="curve" smooth="yes"/>
      <point x="417" y="690"/>
      <point x="469" y="738"/>
      <point x="531" y="738" type="curve" smooth="yes"/>
      <point x="593" y="738"/>
      <point x="630" y="690"/>
      <point x="620" y="634" type="curve" smooth="yes"/>
      <point x="610" y="578"/>
      <point x="556" y="530"/>
      <point x="494" y="530" type="curve" smooth="yes"/>
      <point x="432" y="530"/>
      <point x="397" y="578"/>
    </contour>
    <contour>
      <point x="150" y="634" type="curve" smooth="yes"/>
      <point x="160" y="690"/>
      <point x="212" y="738"/>
      <point x="274" y="738" type="curve" smooth="yes"/>
      <point x="336" y="738"/>
      <point x="372" y="690"/>
      <point x="362" y="634" type="curve" smooth="yes"/>
      <point x="352" y="578"/>
      <point x="299" y="530"/>
      <point x="237" y="530" type="curve" smooth="yes"/>
      <point x="175" y="530"/>
      <point x="140" y="578"/>
    </contour>
  </outline>
</glyph>
<glyph name="Abreve" format="1">
  <advance width="757"/>
  <unicode hex="0102"/>
  <outline>
    <contour>
      <point x="216" y="112" type="line"/>
      <point x="247" y="256" type="line"/>
      <point x="605" y="256" type="line"/>
      <point x="586" y="112" type="line"/>
    </contour>
    <contour>
      <point x="452" y="412" type="line"/>
      <point x="323" y="203" type="line"/>
      <point x="327" y="159" type="line"/>
      <point x="218" y="0" type="line"/>
      <point x="-4" y="0" type="line"/>
      <point x="511" y="747" type="line"/>
      <point x="760" y="0" type="line"/>
      <point x="540" y="0" type="line"/>
      <point x="487" y="152" type="line"/>
      <point x="507" y="202" type="line"/>
    </contour>
    <contour>
      <point x="380" y="955" type="curve"/>
      <point x="488" y="955" type="line"/>
      <point x="481" y="917"/>
      <point x="508" y="900"/>
      <point x="538" y="900" type="curve" smooth="yes"/>
      <point x="568" y="900"/>
      <point x="598" y="917"/>
      <point x="605" y="955" type="curve"/>
      <point x="713" y="955" type="line"/>
      <point x="698" y="869"/>
      <point x="626" y="807"/>
      <point x="521" y="807" type="curve" smooth="yes"/>
      <point x="416" y="807"/>
      <point x="365" y="869"/>
    </contour>
  </outline>
</glyph>
<glyph name="Aogonek" format="1">
  <advance width="757"/>
  <unicode hex="0104"/>
  <outline>
    <contour>
      <point x="216" y="112" type="line"/>
      <point x="247" y="256" type="line"/>
      <point x="605" y="256" type="line"/>
      <point x="586" y="112" type="line"/>
    </contour>
    <contour>
      <point x="452" y="412" type="line"/>
      <point x="323" y="203" type="line"/>
      <point x="327" y="159" type="line"/>
      <point x="218" y="0" type="line"/>
      <point x="-4" y="0" type="line"/>
      <point x="511" y="747" type="line"/>
      <point x="760" y="0" type="line"/>
      <point x="540" y="0" type="line"/>
      <point x="487" y="152" type="line"/>
      <point x="507" y="202" type="line"/>
    </contour>
    <contour>
      <point x="703" y="-95" type="curve"/>
      <point x="722" y="-170" type="line"/>
      <point x="703" y="-190"/>
      <point x="671" y="-210"/>
      <point x="611" y="-210" type="curve" smooth="yes"/>
      <point x="551" y="-210"/>
      <point x="503" y="-178"/>
      <point x="515" y="-110" type="curve"/>
      <point x="624" y="-82" type="line"/>
      <point x="620" y="-104"/>
      <point x="628" y="-115"/>
      <point x="650" y="-115" type="curve" smooth="yes"/>
      <point x="668" y="-115"/>
      <point x="687" y="-108"/>
    </contour>
    <contour>
      <point x="624" y="-82" type="curve"/>
      <point x="515" y="-110" type="line"/>
      <point x="527" y="-42"/>
      <point x="604" y="0"/>
      <point x="680" y="36" type="curve"/>
      <point x="716" y="10" type="line"/>
      <point x="659" y="-20"/>
      <point x="629" y="-54"/>
    </contour>
  </outline>
</glyph>
<glyph name="cacute" format="1">
  <advance width="498"/>
  <unicode hex="0107"/>
  <outline>
    <contour>
      <point x="249" y="230" type="curve" smooth="yes"/>
      <point x="237" y="162"/>
      <point x="280" y="124"/>
      <point x="342" y="124" type="curve" smooth="yes"/>
      <point x="392" y="124"/>
      <point x="443" y="144"/>
      <point x="481" y="188" type="curve"/>
      <point x="453" y="26" type="line"/>
      <point x="417" y="4"/>
      <point x="374" y="-10"/>
      <point x="302" y="-10" type="curve" smooth="yes"/>
      <point x="142" y="-10"/>
      <point x="45" y="82"/>
      <point x="71" y="230" type="curve" smooth="yes"/>
      <point x="97" y="378"/>
      <point x="227" y="470"/>
      <point x="387" y="470" type="curve" smooth="yes"/>
      <point x="459" y="470"/>
      <point x="496" y="454"/>
      <point x="525" y="436" type="curve"/>
      <point x="496" y="273" type="line"/>
      <point x="474" y="317"/>
      <point x="421" y="336"/>
      <point x="379" y="336" type="curve" smooth="yes"/>
      <point x="317" y="336"/>
      <point x="260" y="290"/>
    </contour>
    <contour>
      <point x="554" y="680" type="line"/>
      <point x="347" y="530" type="line"/>
      <point x="258" y="577" type="line"/>
      <point x="436" y="737" type="line"/>
    </contour>
  </outline>
</glyph>
<glyph name="cdotaccent" format="1">
  <advance width="498"/>
  <unicode hex="010B"/>
  <outline>
    <contour>
      <point x="249" y="230" type="curve" smooth="yes"/>
      <point x="237" y="162"/>
      <point x="280" y="124"/>
      <point x="342" y="124" type="curve" smooth="yes"/>
      <point x="392" y="124"/>
      <point x="443" y="144"/>
      <point x="481" y="188" type="curve"/>
      <point x="453" y="26" type="line"/>
      <point x="417" y="4"/>
      <point x="374" y="-10"/>
      <point x="302" y="-10" type="curve" smooth="yes"/>
      <point x="142" y="-10"/>
      <point x="45" y="82"/>
      <point x="71" y="230" type="curve" smooth="yes"/>
      <point x="97" y="378"/>
      <point x="227" y="470"/>
      <point x="387" y="470" type="curve" smooth="yes"/>
      <point x="459" y="470"/>
      <point x="496" y="454"/>
      <point x="525" y="436" type="curve"/>
      <point x="496" y="273" type="line"/>
      <point x="474" y="317"/>
      <point x="421" y="336"/>
      <point x="379" y="336" type="curve" smooth="yes"/>
      <point x="317" y="336"/>
      <point x="260" y="290"/>
    </contour>
    <contour>
      <point x="289" y="651" type="curve" smooth="yes"/>
      <point x="299" y="707"/>
      <point x="351" y="754"/>
      <point x="413" y="754" type="curve" smooth="yes"/>
      <point x="475" y="754"/>
      <point x="511" y="707"/>
      <point x="501" y="651" type="curve" smooth="yes"/>
      <point x="491" y="595"/>
      <point x="438" y="547"/>
      <point x="376" y="547" type="curve" smooth="yes"/>
      <point x="314" y="547"/>
      <point x="279" y="595"/>
    </contour>
  </outline>
</glyph>
<glyph name="Ccaron" format="1">
  <advance width="705"/>
  <unicode hex="010C"/>
  <outline>
    <contour>
      <point x="308" y="350" type="curve" smooth="yes"/>
      <point x="287" y="232"/>
      <point x="363" y="166"/>
      <point x="469" y="166" type="curve" smooth="yes"/>
      <point x="568" y="166"/>
      <point x="636" y="210"/>
      <point x="689" y="256" type="curve"/>
      <point x="653" y="50" type="line"/>
      <point x="590" y="10"/>
      <point x="525" y="-18"/>
      <point x="423" y="-18" type="curve" smooth="yes"/>
      <point x="189" y="-18"/>
      <point x="55" y="129"/>
      <point x="94" y="350" type="curve" smooth="yes"/>
      <point x="133" y="571"/>
      <point x="319" y="718"/>
      <point x="553" y="718" type="curve" smooth="yes"/>
      <point x="655" y="718"/>
      <point x="710" y="690"/>
      <point x="759" y="650" type="curve"/>
      <point x="722" y="444" type="line"/>
      <point x="685" y="490"/>
      <point x="633" y="534"/>
      <point x="534" y="534" type="curve" smooth="yes"/>
      <point x="428" y="534"/>
      <point x="329" y="468"/>
    </contour>
    <contour>
      <point x="588" y="916" type="line"/>
      <point x="688" y="999" type="line"/>
      <point x="798" y="918" type="line"/>
      <point x="563" y="778" type="line"/>
      <point x="380" y="918" type="line"/>
      <point x="517" y="999" type="line"/>
    </contour>
  </outline>
</glyph>
<glyph name="Emacron" format="1">
  <advance width="619"/>
  <unicode hex="0112"/>
  <outline>
    <contour>
      <point x="204" y="0" type="line"/>
      <point x="232" y="158" type="line"/>
      <point x="586" y="158" type="line"/>
      <point x="558" y="0" type="line"/>
    </contour>
    <contour>
      <point x="300" y="542" type="line"/>
      <point x="327" y="700" type="line"/>
      <point x="681" y="700" type="line"/>
      <point x="654" y="542" type="line"/>
    </contour>
    <contour>
      <point x="255" y="288" type="line"/>
      <point x="282" y="440" type="line"/>
      <point x="616" y="440" type="line"/>
      <point x="589" y="288" type="line"/>
    </contour>
    <contour>
      <point x="195" y="700" type="line"/>
      <point x="381" y="700" type="line"/>
      <point x="258" y="0" type="line"/>
      <point x="72" y="0" type="line"/>
    </contour>
    <contour>
      <point x="262" y="778" type="line"/>
      <point x="288" y="926" type="line"/>
      <point x="667" y="926" type="line"/>
      <point x="641" y="778" type="line"/>
    </contour>
  </outline>
</glyph>
<glyph name="Ebreve" format="1">
  <advance width="619"/>
  <unicode hex="0114"/>
  <outline>
    <contour>
      <point x="204" y="0" type="line"/>
      <point x="232" y="158" type="line"/>
      <point x="586" y="158" type="line"/>
      <point x="558" y="0" type="line"/>
    </contour>
    <contour>
      <point x="300" y="542" type="line"/>
      <point x="327" y="700" type="line"/>
      <point x="681" y="700" type="line"/>
      <point x="654" y="542" type="line"/>
    </contour>
    <contour>
      <point x="255" y="288" type="line"/>
      <point x="282" y="440" type="line"/>
      <point x="616" y="440" type="line"/>
      <point x="589" y="288" type="line"/>
    </contour>
    <contour>
      <point x="195" y="700" type="line"/>
      <point x="381" y="700" type="line"/>
      <point x="258" y="0" type="line"/>
      <point x="72" y="0" type="line"/>
    </contour>
    <contour>
      <point x="311" y="926" type="curve"/>
      <point x="419" y="926" type="line"/>
      <point x="412" y="888"/>
      <point x="438" y="872"/>
      <point x="468" y="872" type="curve" smooth="yes"/>
      <point x="498" y="872"/>
      <point x="529" y="888"/>
      <point x="536" y="926" type="curve"/>
      <point x="643" y="926" type="line"/>
      <point x="628" y="840"/>
      <point x="556" y="778"/>
      <point x="451" y="778" type="curve" smooth="yes"/>
      <point x="346" y="778"/>
      <point x="296" y="840"/>
    </contour>
  </outline>
</glyph>
<glyph name="gdotaccent" format="1">
  <advance width="622"/>
  <unicode hex="0121"/>
  <outline>
    <contour>
      <point x="490" y="238" type="curve"/>
      <point x="446" y="238" type="line"/>
      <point x="458" y="304"/>
      <point x="415" y="334"/>
      <point x="369" y="334" type="curve" smooth="yes"/>
      <point x="317" y="334"/>
      <point x="267" y="300"/>
      <point x="256" y="238" type="curve"/>
      <point x="73" y="238" type="line"/>
      <point x="101" y="396"/>
      <point x="221" y="470"/>
      <point x="329" y="470" type="curve" smooth="yes"/>
      <point x="444" y="470"/>
      <point x="516" y="387"/>
    </contour>
    <contour>
      <point x="446" y="238" type="curve"/>
      <point x="490" y="238" type="line"/>
      <point x="464" y="89"/>
      <point x="362" y="6"/>
      <point x="247" y="6" type="curve" smooth="yes"/>
      <point x="139" y="6"/>
      <point x="45" y="80"/>
      <point x="73" y="238" type="curve"/>
      <point x="256" y="238" type="line"/>
      <point x="245" y="176"/>
      <point x="283" y="142"/>
      <point x="335" y="142" type="curve" smooth="yes"/>
      <point x="381" y="142"/>
      <point x="434" y="172"/>
    </contour>
    <contour>
      <point x="35" y="-34" type="curve"/>
      <point x="202" y="-34" type="line"/>
      <point x="198" y="-88"/>
      <point x="231" y="-106"/>
      <point x="281" y="-106" type="curve" smooth="yes"/>
      <point x="343" y="-106"/>
      <point x="393" y="-66"/>
      <point x="406" y="10" type="curve" smooth="yes"/>
      <point x="485" y="460" type="line"/>
      <point x="650" y="460" type="line"/>
      <point x="571" y="10" type="line" smooth="yes"/>
      <point x="539" y="-174"/>
      <point x="413" y="-242"/>
      <point x="265" y="-242" type="curve" smooth="yes"/>
      <point x="81" y="-242"/>
      <point x="27" y="-157"/>
    </contour>
    <contour>
      <point x="326" y="634" type="curve" smooth="yes"/>
      <point x="336" y="690"/>
      <point x="388" y="738"/>
      <point x="450" y="738" type="curve" smooth="yes"/>
      <point x="512" y="738"/>
      <point x="548" y="690"/>
      <point x="538" y="634" type="curve" smooth="yes"/>
      <point x="528" y="578"/>
      <point x="475" y="530"/>
      <point x="413" y="530" type="curve" smooth="yes"/>
      <point x="351" y="530"/>
      <point x="316" y="578"/>
    </contour>
  </outline>
</glyph>
<glyph name="Itilde" format="1">
  <advance width="342"/>
  <unicode hex="0128"/>
  <outline>
    <contour>
      <point x="195" y="700" type="line"/>
      <point x="393" y="700" type="line"/>
      <point x="270" y="0" type="line"/>
      <point x="72" y="0" type="line"/>
    </contour>
    <contour>
      <point x="116" y="852" type="line"/>
      <point x="135" y="901"/>
      <point x="188" y="950"/>
      <point x="258" y="950" type="curve" smooth="yes"/>
      <point x="324" y="950"/>
      <point x="331" y="897"/>
      <point x="388" y="897" type="curve" smooth="yes"/>
      <point x="416" y="897"/>
      <point x="441" y="920"/>
      <point x="467" y="952" type="curve"/>
      <point x="531" y="868" type="line"/>
      <point x="508" y="831"/>
      <point x="437" y="779"/>
      <point x="371" y="779" type="curve" smooth="yes"/>
      <point x="316" y="779"/>
      <point x="288" y="834"/>
      <point x="237" y="834" type="curve" smooth="yes"/>
      <point x="200" y="834"/>
      <point x="184" y="798"/>
      <point x="181" y="783" type="curve"/>
    </contour>
  </outline>
</glyph>
<glyph name="imacron" format="1">
  <advance width="281"/>
  <unicode hex="012B"/>
  <outline>
    <contour>
      <point x="137" y="460" type="line"/>
      <point x="305" y="460" type="line"/>
      <point x="224" y="0" type="line"/>
      <point x="56" y="0" type="line"/>
    </contour>
    <contour>
      <point x="44" y="530" type="line"/>
      <point x="71" y="679" type="line"/>
      <point x="450" y="679" type="line"/>
      <point x="423" y="530" type="line"/>
    </contour>
  </outline>
</glyph>
<glyph name="Ibreve" format="1">
  <advance width="342"/>
  <unicode hex="012C"/>
  <outline>
    <contour>
      <point x="195" y="700" type="line"/>
      <point x="393" y="700" type="line"/>
      <point x="270" y="0" type="line"/>
      <point x="72" y="0" type="line"/>
    </contour>
    <contour>
      <point x="168" y="926" type="curve"/>
      <point x="275" y="926" type="line"/>
      <point x="268" y="888"/>
      <point x="295" y="872"/>
      <point x="325" y="872" type="curve" smooth="yes"/>
      <point x="355" y="872"/>
      <point x="386" y="888"/>
      <point x="393" y="926" type="curve"/>
      <point x="500" y="926" type="line"/>
      <point x="485" y="840"/>
      <point x="413" y="778"/>
      <point x="308" y="778" type="curve" smooth="yes"/>
      <point x="203" y="778"/>
      <point x="153" y="840"/>
    </contour>
  </outline>
</glyph>
<glyph name="Idotaccent" format="1">
  <advance width="342"/>
  <unicode hex="0130"/>
  <outline>
    <contour>
      <point x="195" y="700" type="line"/>
      <point x="393" y="700" type="line"/>
      <point x="270" y="0" type="line"/>
      <point x="72" y="0" type="line"/>
    </contour>
    <contour>
      <point x="220" y="882" type="curve" smooth="yes"/>
      <point x="230" y="938"/>
      <point x="283" y="986"/>
      <point x="345" y="986" type="curve" smooth="yes"/>
      <point x="407" y="986"/>
      <point x="443" y="938"/>
      <point x="433" y="882" type="curve" smooth="yes"/>
      <point x="423" y="826"/>
      <point x="370" y="778"/>
      <point x="308" y="778" type="curve" smooth="yes"/>
      <point x="246" y="778"/>
      <point x="210" y="826"/>
    </contour>
  </outline>
</glyph>
<glyph name="uni0137" format="1">
  <advance width="618"/>
  <unicode hex="0137"/>
  <outline>
    <contour>
      <point x="192" y="780" type="line"/>
      <point x="357" y="780" type="line"/>
      <point x="219" y="0" type="line"/>
      <point x="54" y="0" type="line"/>
    </contour>
    <contour>
      <point x="467" y="460" type="line"/>
      <point x="671" y="460" type="line"/>
      <point x="442" y="270" type="line"/>
      <point x="610" y="0" type="line"/>
      <point x="409" y="0" type="line"/>
      <point x="238" y="270" type="line"/>
    </contour>
    <contour>
      <point x="245" y="-60" type="line"/>
      <point x="415" y="-93" type="line"/>
      <point x="240" y="-343" type="line"/>
      <point x="112" y="-319" type="line"/>
    </contour>
  </outline>
</glyph>
<glyph name="uni013C" format="1">
  <advance width="282"/>
  <unicode hex="013C"/>
  <outline>
    <contour>
      <point x="193" y="780" type="line"/>
      <point x="366" y="780" type="line"/>
      <point x="228" y="0" type="line"/>
      <point x="55" y="0" type="line"/>
    </contour>
    <contour>
      <point x="88" y="-60" type="line"/>
      <point x="256" y="-93" type="line"/>
      <point x="82" y="-343" type="line"/>
      <point x="-45" y="-319" type="line"/>
    </contour>
  </outline>
</glyph>
<glyph name="Lcaron" format="1">
  <advance width="551"/>
  <unicode hex="013D"/>
  <outline>
    <contour>
      <point x="204" y="0" type="line"/>
      <point x="233" y="166" type="line"/>
      <point x="579" y="166" type="line"/>
      <point x="550" y="0" type="line"/>
    </contour>
    <contour>
      <point x="195" y="700" type="line"/>
      <point x="389" y="700" type="line"/>
      <point x="266" y="0" type="line"/>
      <point x="72" y="0" type="line"/>
    </contour>
    <contour>
      <point x="539" y="718" type="line"/>
      <point x="706" y="685" type="line"/>
      <point x="531" y="435" type="line"/>
      <point x="405" y="460" type="line"/>
    </contour>
  </outline>
</glyph>
<glyph name="lslash" format="1">
  <advance width="282"/>
  <unicode hex="0142"/>
  <outline>
    <contour>
      <point x="165" y="698" type="line"/>
      <point x="321" y="708" type="line"/>
      <point x="262" y="102" type="line"/>
      <point x="104" y="92" type="line"/>
    </contour>
    <contour>
      <point x="69" y="382" type="line"/>
      <point x="56" y="451" type="line"/>
      <point x="376" y="516" type="line"/>
      <point x="389" y="447" type="line"/>
    </contour>
  </outline>
</glyph>
<glyph name="Zcaron" format="1">
  <advance width="642"/>
  <unicode hex="017D"/>
  <outline>
    <contour>
      <point x="157" y="526" type="line"/>
      <point x="187" y="700" type="line"/>
      <point x="753" y="700" type="line"/>
      <point x="341" y="166" type="line"/>
      <point x="619" y="166" type="line"/>
      <point x="590" y="0" type="line"/>
      <point x="6" y="0" type="line"/>
      <point x="413" y="526" type="line"/>
    </contour>
    <contour>
      <point x="508" y="916" type="line"/>
      <point x="608" y="999" type="line"/>
      <point x="718" y="918" type="line"/>
      <point x="483" y="778" type="line"/>
      <point x="300" y="918" type="line"/>
      <point x="437" y="999" type="line"/>
    </contour>
  </outline>
</glyph>
<glyph name="zcaron" format="1">
  <advance width="533"/>
  <unicode hex="017E"/>
  <outline>
    <contour>
      <point x="204" y="156" type="line"/>
      <point x="518" y="156" type="line"/>
      <point x="490" y="0" type="line"/>
      <point x="15" y="0" type="line"/>
    </contour>
    <contour>
      <point x="143" y="460" type="line"/>
      <point x="607" y="460" type="line"/>
      <point x="404" y="304" type="line"/>
      <point x="116" y="304" type="line"/>
    </contour>
    <contour>
      <point x="445" y="460" type="line"/>
      <point x="607" y="460" type="line"/>
      <point x="202" y="0" type="line"/>
      <point x="15" y="0" type="line"/>
    </contour>
    <contour>
      <point x="412" y="668" type="line"/>
      <point x="512" y="750" type="line"/>
      <point x="620" y="670" type="line"/>
      <point x="387" y="530" type="line"/>
      <point x="203" y="670" type="line"/>
      <point x="340" y="750" type="line"/>
    </contour>
  </outline>
</glyph>
<glyph name="uni0213" format="1">
  <advance width="432"/>
  <unicode hex="0213"/>
  <outline>
    <contour>
      <point x="305" y="460" type="line"/>
      <point x="224" y="0" type="line"/>
      <point x="55" y="0" type="line"/>
      <point x="136" y="460" type="line"/>
    </contour>
    <contour>
      <point x="405" y="282" type="line"/>
      <point x="394" y="298"/>
      <point x="378" y="310"/>
      <point x="352" y="310" type="curve" smooth="yes"/>
      <point x="312" y="310"/>
      <point x="273" y="277"/>
      <point x="261" y="211" type="curve"/>
      <point x="237" y="280" type="line"/>
      <point x="256" y="389"/>
      <point x="347" y="472"/>
      <point x="429" y="472" type="curve" smooth="yes"/>
      <point x="462" y="472"/>
      <point x="494" y="454"/>
      <point x="504" y="432" type="curve"/>
    </contour>
    <contour>
      <point x="169" y="532" type="curve"/>
      <point x="276" y="532" type="line"/>
      <point x="283" y="570"/>
      <point x="315" y="586"/>
      <point x="345" y="586" type="curve" smooth="yes"/>
      <point x="375" y="586"/>
      <point x="401" y="570"/>
      <point x="394" y="532" type="curve"/>
      <point x="502" y="532" type="line"/>
      <point x="517" y="618"/>
      <point x="467" y="680"/>
      <point x="362" y="680" type="curve" smooth="yes"/>
      <point x="257" y="680"/>
      <point x="184" y="618"/>
    </contour>
  </outline>
</glyph>
<glyph name="caron" format="1">
  <advance width="480"/>
  <unicode hex="02C7"/>
  <outline>
    <contour>
      <point x="360" y="682" type="line"/>
      <point x="461" y="766" type="line"/>
      <point x="570" y="684" type="line"/>
      <point x="336" y="544" type="line"/>
      <point x="152" y="684" type="line"/>
      <point x="289" y="766" type="line"/>
    </contour>
  </outline>
</glyph>
<glyph name="dotaccent" format="1">
  <advance width="300"/>
  <unicode hex="02D9"/>
  <outline>
    <contour>
      <point x="189" y="822" type="curve" smooth="yes"/>
      <point x="199" y="878"/>
      <point x="251" y="926"/>
      <point x="313" y="926" type="curve" smooth="yes"/>
      <point x="375" y="926"/>
      <point x="411" y="878"/>
      <point x="401" y="822" type="curve" smooth="yes"/>
      <point x="391" y="766"/>
      <point x="339" y="718"/>
      <point x="277" y="718" type="curve" smooth="yes"/>
      <point x="215" y="718"/>
      <point x="179" y="766"/>
    </contour>
  </outline>
</glyph>
<glyph name="figuredash" format="1">
  <advance width="638"/>
  <unicode hex="2012"/>
  <outline>
    <contour>
      <point x="99" y="164" type="line"/>
      <point x="125" y="312" type="line"/>
      <point x="611" y="312" type="line"/>
      <point x="585" y="164" type="line"/>
    </contour>
  </outline>
</glyph>
<glyph name="emdash" format="1">
  <advance width="955"/>
  <unicode hex="2014"/>
  <outline>
    <contour>
      <point x="99" y="164" type="line"/>
      <point x="125" y="312" type="line"/>
      <point x="936" y="312" type="line"/>
      <point x="910" y="164" type="line"/>
    </contour>
  </outline>
</glyph>
<glyph name="quotesinglbase" format="1">
  <advance width="348"/>
  <unicode hex="201A"/>
  <outline>
    <contour>
      <point x="126" y="80" type="line"/>
      <point x="302" y="80" type="line"/>
      <point x="152" y="-182" type="line"/>
      <point x="28" y="-182" type="line"/>
    </contour>
  </outline>
</glyph>
<glyph name="quotedblright" format="1">
  <advance width="588"/>
  <unicode hex="201D"/>
  <outline>
    <contour>
      <point x="225" y="700" type="line"/>
      <point x="401" y="700" type="line"/>
      <point x="251" y="438" type="line"/>
      <point x="127" y="438" type="line"/>
    </contour>
    <contour>
      <point x="465" y="700" type="line"/>
      <point x="641" y="700" type="line"/>
      <point x="492" y="438" type="line"/>
      <point x="367" y="438" type="line"/>
    </contour>
  </outline>
</glyph>
<glyph name="daggerdbl" format="1">
  <advance width="651"/>
  <unicode hex="2021"/>
  <outline>
    <contour>
      <point x="120" y="169" type="line"/>
      <point x="591" y="169" type="line"/>
      <point x="566" y="28" type="line"/>
      <point x="95" y="28" type="line"/>
    </contour>
    <contour>
      <point x="185" y="540" type="line"/>
      <point x="656" y="540" type="line"/>
      <point x="632" y="400" type="line"/>
      <point x="161" y="400" type="line"/>
    </contour>
    <contour>
      <point x="368" y="700" type="line"/>
      <point x="529" y="700" type="line"/>
      <point x="380" y="-150" type="line"/>
      <point x="219" y="-150" type="line"/>
    </contour>
  </outline>
</glyph>
<glyph name="guilsinglright" format="1">
  <advance width="350"/>
  <unicode hex="203A"/>
  <outline>
    <contour>
      <point x="264" y="275" type="line"/>
      <point x="371" y="255" type="line"/>
      <point x="151" y="-4" type="line"/>
      <point x="57" y="65" type="line"/>
    </contour>
    <contour>
      <point x="371" y="255" type="line"/>
      <point x="256" y="225" type="line"/>
      <point x="124" y="445" type="line"/>
      <point x="243" y="514" type="line"/>
    </contour>
  </outline>
</glyph>
<glyph name="uni2070" format="1">
  <advance width="396"/>
  <unicode hex="2070"/>
  <outline>
    <contour>
      <point x="216" y="490" type="curve" smooth="yes"/>
      <point x="203" y="416"/>
      <point x="223" y="371"/>
      <point x="263" y="371" type="curve" smooth="yes"/>
      <point x="303" y="371"/>
      <point x="339" y="416"/>
      <point x="352" y="490" type="curve" smooth="yes"/>
      <point x="365" y="564"/>
      <point x="345" y="609"/>
      <point x="305" y="609" type="curve" smooth="yes"/>
      <point x="265" y="609"/>
      <point x="229" y="564"/>
    </contour>
    <contour>
      <point x="104" y="490" type="curve" smooth="yes"/>
      <point x="129" y="630"/>
      <point x="217" y="708"/>
      <point x="323" y="708" type="curve" smooth="yes"/>
      <point x="435" y="708"/>
      <point x="489" y="630"/>
      <point x="464" y="490" type="curve" smooth="yes"/>
      <point x="439" y="350"/>
      <point x="358" y="272"/>
      <point x="246" y="272" type="curve" smooth="yes"/>
      <point x="140" y="272"/>
      <point x="79" y="350"/>
    </contour>
  </outline>
</glyph>
<glyph name="uni2079" format="1">
  <advance width="390"/>
  <unicode hex="2079"/>
  <outline>
    <contour>
      <point x="357" y="552" type="curve" smooth="yes"/>
      <point x="364" y="590"/>
      <point x="341" y="614"/>
      <point x="305" y="614" type="curve" smooth="yes"/>
      <point x="269" y="614"/>
      <point x="238" y="590"/>
      <point x="231" y="552" type="curve" smooth="yes"/>
      <point x="224" y="514"/>
      <point x="247" y="488"/>
      <point x="283" y="488" type="curve" smooth="yes"/>
      <point x="319" y="488"/>
      <point x="350" y="514"/>
    </contour>
    <contour>
      <point x="256" y="284" type="line"/>
      <point x="108" y="284" type="line"/>
      <point x="271" y="430" type="line"/>
      <point x="299" y="442" type="line"/>
      <point x="271" y="420"/>
      <point x="253" y="415"/>
      <point x="222" y="415" type="curve" smooth="yes"/>
      <point x="162" y="415"/>
      <point x="100" y="466"/>
      <point x="115" y="552" type="curve" smooth="yes"/>
      <point x="134" y="660"/>
      <point x="225" y="713"/>
      <point x="323" y="713" type="curve" smooth="yes"/>
      <point x="421" y="713"/>
      <point x="493" y="660"/>
      <point x="474" y="552" type="curve" smooth="yes"/>
      <point x="466" y="504"/>
      <point x="432" y="464"/>
      <point x="395" y="426" type="curve" smooth="yes"/>
    </contour>
  </outline>
</glyph>
<glyph name="uni2080" format="1">
  <advance width="396"/>
  <unicode hex="2080"/>
  <outline>
    <contour>
      <point x="167" y="210" type="curve" smooth="yes"/>
      <point x="154" y="136"/>
      <point x="174" y="91"/>
      <point x="214" y="91" type="curve" smooth="yes"/>
      <point x="254" y="91"/>
      <point x="290" y="136"/>
      <point x="303" y="210" type="curve" smooth="yes"/>
      <point x="316" y="284"/>
      <point x="296" y="329"/>
      <point x="256" y="329" type="curve" smooth="yes"/>
      <point x="216" y="329"/>
      <point x="180" y="284"/>
    </contour>
    <contour>
      <point x="55" y="210" type="curve" smooth="yes"/>
      <point x="80" y="350"/>
      <point x="167" y="428"/>
      <point x="273" y="428" type="curve" smooth="yes"/>
      <point x="385" y="428"/>
      <point x="440" y="350"/>
      <point x="415" y="210" type="curve" smooth="yes"/>
      <point x="390" y="70"/>
      <point x="309" y="-8"/>
      <point x="197" y="-8" type="curve" smooth="yes"/>
      <point x="91" y="-8"/>
      <point x="30" y="70"/>
    </contour>
  </outline>
</glyph>
<glyph name="uni2151" format="1">
  <advance width="914"/>
  <unicode hex="2151"/>
  <outline>
    <contour>
      <point x="731" y="700" type="line"/>
      <point x="869" y="700" type="line"/>
      <point x="226" y="0" type="line"/>
      <point x="88" y="0" type="line"/>
    </contour>
    <contour>
      <point x="121" y="560" type="line"/>
      <point x="138" y="660" type="line"/>
      <point x="366" y="702" type="line"/>
      <point x="290" y="274" type="line"/>
      <point x="178" y="274" type="line"/>
      <point x="233" y="586" type="line"/>
    </contour>
    <contour>
      <point x="822" y="272" type="curve" smooth="yes"/>
      <point x="829" y="310"/>
      <point x="805" y="334"/>
      <point x="769" y="334" type="curve" smooth="yes"/>
      <point x="733" y="334"/>
      <point x="702" y="310"/>
      <point x="695" y="272" type="curve" smooth="yes"/>
      <point x="688" y="234"/>
      <point x="711" y="208"/>
      <point x="747" y="208" type="curve" smooth="yes"/>
      <point x="783" y="208"/>
      <point x="815" y="234"/>
    </contour>
    <contour>
      <point x="721" y="4" type="line"/>
      <point x="572" y="4" type="line"/>
      <point x="734" y="150" type="line"/>
      <point x="763" y="162" type="line"/>
      <point x="735" y="140"/>
      <point x="717" y="135"/>
      <point x="686" y="135" type="curve" smooth="yes"/>
      <point x="626" y="135"/>
      <point x="565" y="186"/>
      <point x="580" y="272" type="curve" smooth="yes"/>
      <point x="599" y="380"/>
      <point x="688" y="433"/>
      <point x="786" y="433" type="curve" smooth="yes"/>
      <point x="884" y="433"/>
      <point x="957" y="380"/>
      <point x="938" y="272" type="curve" smooth="yes"/>
      <point x="930" y="224"/>
      <point x="897" y="184"/>
      <point x="860" y="146" type="curve" smooth="yes"/>
    </contour>
  </outline>
</glyph>
<glyph name="uni2152" format="1">
  <advance width="1250"/>
  <unicode hex="2152"/>
  <outline>
    <contour>
      <point x="731" y="700" type="line"/>
      <point x="869" y="700" type="line"/>
      <point x="226" y="0" type="line"/>
      <point x="88" y="0" type="line"/>
    </contour>
    <contour>
      <point x="121" y="560" type="line"/>
      <point x="138" y="660" type="line"/>
      <point x="366" y="702" type="line"/>
      <point x="290" y="274" type="line"/>
      <point x="178" y="274" type="line"/>
      <point x="233" y="586" type="line"/>
    </contour>
    <contour>
      <point x="620" y="288" type="line"/>
      <point x="637" y="387" type="line"/>
      <point x="864" y="430" type="line"/>
      <point x="788" y="1" type="line"/>
      <point x="676" y="1" type="line"/>
      <point x="731" y="314" type="line"/>
    </contour>
    <contour>
      <point x="1005" y="210" type="curve" smooth="yes"/>
      <point x="992" y="136"/>
      <point x="1012" y="91"/>
      <point x="1052" y="91" type="curve" smooth="yes"/>
      <point x="1092" y="91"/>
      <point x="1128" y="136"/>
      <point x="1141" y="210" type="curve" smooth="yes"/>
      <point x="1154" y="284"/>
      <point x="1134" y="329"/>
      <point x="1094" y="329" type="curve" smooth="yes"/>
      <point x="1054" y="329"/>
      <point x="1018" y="284"/>
    </contour>
    <contour>
      <point x="893" y="210" type="curve" smooth="yes"/>
      <point x="918" y="350"/>
      <point x="1005" y="428"/>
      <point x="1111" y="428" type="curve" smooth="yes"/>
      <point x="1223" y="428"/>
      <point x="1278" y="350"/>
      <point x="1253" y="210" type="curve" smooth="yes"/>
      <point x="1228" y="70"/>
      <point x="1147" y="-8"/>
      <point x="1035" y="-8" type="curve" smooth="yes"/>
      <point x="929" y="-8"/>
      <point x="868" y="70"/>
    </contour>
  </outline>
</glyph>
<glyph name="uni2155" format="1">
  <advance width="898"/>
  <unicode hex="2155"/>
  <outline>
    <contour>
      <point x="731" y="700" type="line"/>
      <point x="869" y="700" type="line"/>
      <point x="226" y="0" type="line"/>
      <point x="88" y="0" type="line"/>
    </contour>
    <contour>
      <point x="121" y="560" type="line"/>
      <point x="138" y="660" type="line"/>
      <point x="366" y="702" type="line"/>
      <point x="290" y="274" type="line"/>
      <point x="178" y="274" type="line"/>
      <point x="233" y="586" type="line"/>
    </contour>
    <contour>
      <point x="901" y="131" type="curve" smooth="yes"/>
      <point x="883" y="31"/>
      <point x="780" y="-10"/>
      <point x="699" y="-10" type="curve" smooth="yes"/>
      <point x="622" y="-10"/>
      <point x="572" y="10"/>
      <point x="534" y="34" type="curve"/>
      <point x="590" y="134" type="line"/>
      <point x="623" y="108"/>
      <point x="663" y="96"/>
      <point x="689" y="96" type="curve" smooth="yes"/>
      <point x="737" y="96"/>
      <point x="770" y="110"/>
      <point x="776" y="146" type="curve" smooth="yes"/>
      <point x="782" y="182"/>
      <point x="743" y="193"/>
      <point x="706" y="193" type="curve" smooth="yes"/>
      <point x="676" y="193"/>
      <point x="627" y="188"/>
      <point x="581" y="170" type="curve"/>
      <point x="673" y="224" type="line"/>
      <point x="712" y="259"/>
      <point x="752" y="268"/>
      <point x="796" y="268" type="curve" smooth="yes"/>
      <point x="860" y="268"/>
      <point x="917" y="219"/>
    </contour>
    <contour>
      <point x="752" y="317" type="line"/>
      <point x="699" y="219" type="line"/>
      <point x="581" y="170" type="line"/>
      <point x="684" y="418" type="line"/>
      <point x="940" y="418" type="line"/>
      <point x="922" y="317" type="line"/>
    </contour>
  </outline>
</glyph>
<glyph name="uni2157" format="1">
  <advance width="961"/>
  <unicode hex="2157"/>
  <outline>
    <contour>
      <point x="803" y="700" type="line"/>
      <point x="941" y="700" type="line"/>
      <point x="298" y="0" type="line"/>
      <point x="160" y="0" type="line"/>
    </contour>
    <contour>
      <point x="248" y="482" type="curve"/>
      <point x="257" y="532" type="line"/>
      <point x="301" y="532"/>
      <point x="336" y="556"/>
      <point x="341" y="584" type="curve" smooth="yes"/>
      <point x="345" y="604"/>
      <point x="334" y="617"/>
      <point x="305" y="617" type="curve" smooth="yes"/>
      <point x="275" y="617"/>
      <point x="252" y="600"/>
      <point x="247" y="572" type="curve"/>
      <point x="139" y="572" type="line"/>
      <point x="153" y="649"/>
      <point x="225" y="708"/>
      <point x="321" y="708" type="curve" smooth="yes"/>
      <point x="422" y="708"/>
      <point x="470" y="657"/>
      <point x="458" y="591" type="curve" smooth="yes"/>
      <point x="445" y="515"/>
      <point x="354" y="482"/>
    </contour>
    <contour>
      <point x="237" y="269" type="curve" smooth="yes"/>
      <point x="129" y="269"/>
      <point x="80" y="343"/>
      <point x="94" y="420" type="curve"/>
      <point x="210" y="420" type="line"/>
      <point x="203" y="378"/>
      <point x="229" y="361"/>
      <point x="260" y="361" type="curve" smooth="yes"/>
      <point x="291" y="361"/>
      <point x="316" y="372"/>
      <point x="322" y="406" type="curve" smooth="yes"/>
      <point x="327" y="436"/>
      <point x="308" y="460"/>
      <point x="244" y="460" type="curve"/>
      <point x="254" y="517" type="line"/>
      <point x="374" y="517"/>
      <point x="451" y="482"/>
      <point x="436" y="396" type="curve" smooth="yes"/>
      <point x="423" y="322"/>
      <point x="349" y="269"/>
    </contour>
    <contour>
      <point x="947" y="131" type="curve" smooth="yes"/>
      <point x="929" y="31"/>
      <point x="827" y="-10"/>
      <point x="746" y="-10" type="curve" smooth="yes"/>
      <point x="669" y="-10"/>
      <point x="618" y="10"/>
      <point x="580" y="34" type="curve"/>
      <point x="636" y="134" type="line"/>
      <point x="669" y="108"/>
      <point x="709" y="96"/>
      <point x="735" y="96" type="curve" smooth="yes"/>
      <point x="783" y="96"/>
      <point x="816" y="110"/>
      <point x="822" y="146" type="curve" smooth="yes"/>
      <point x="828" y="182"/>
      <point x="789" y="193"/>
      <point x="752" y="193" type="curve" smooth="yes"/>
      <point x="722" y="193"/>
      <point x="674" y="188"/>
      <point x="628" y="170" type="curve"/>
      <point x="719" y="224" type="line"/>
      <point x="758" y="259"/>
      <point x="799" y="268"/>
      <point x="843" y="268" type="curve" smooth="yes"/>
      <point x="907" y="268"/>
      <point x="963" y="219"/>
    </contour>
    <contour>
      <point x="798" y="317" type="line"/>
      <point x="745" y="219" type="line"/>
      <point x="628" y="170" type="line"/>
      <point x="730" y="418" type="line"/>
      <point x="987" y="418" type="line"/>
      <point x="969" y="317" type="line"/>
    </contour>
  </outline>
</glyph>
<glyph name="uni215A" format="1">
  <advance width="953"/>
  <unicode hex="215A"/>
  <outline>
    <contour>
      <point x="821" y="700" type="line"/>
      <point x="959" y="700" type="line"/>
      <point x="316" y="0" type="line"/>
      <point x="178" y="0" type="line"/>
    </contour>
    <contour>
      <point x="452" y="411" type="curve" smooth="yes"/>
      <point x="434" y="311"/>
      <point x="333" y="270"/>
      <point x="252" y="270" type="curve" smooth="yes"/>
      <point x="175" y="270"/>
      <point x="123" y="290"/>
      <point x="85" y="314" type="curve"/>
      <point x="141" y="414" type="line"/>
      <point x="174" y="388"/>
      <point x="214" y="376"/>
      <point x="240" y="376" type="curve" smooth="yes"/>
      <point x="288" y="376"/>
      <point x="321" y="390"/>
      <point x="327" y="426" type="curve" smooth="yes"/>
      <point x="333" y="462"/>
      <point x="294" y="473"/>
      <point x="257" y="473" type="curve" smooth="yes"/>
      <point x="227" y="473"/>
      <point x="179" y="468"/>
      <point x="133" y="450" type="curve"/>
      <point x="225" y="504" type="line"/>
      <point x="264" y="539"/>
      <point x="305" y="548"/>
      <point x="349" y="548" type="curve" smooth="yes"/>
      <point x="413" y="548"/>
      <point x="468" y="499"/>
    </contour>
    <contour>
      <point x="303" y="597" type="line"/>
      <point x="250" y="499" type="line"/>
      <point x="133" y="450" type="line"/>
      <point x="235" y="698" type="line"/>
      <point x="491" y="698" type="line"/>
      <point x="473" y="597" type="line"/>
    </contour>
    <contour>
      <point x="708" y="148" type="curve" smooth="yes"/>
      <point x="701" y="110"/>
      <point x="724" y="86"/>
      <point x="760" y="86" type="curve" smooth="yes"/>
      <point x="796" y="86"/>
      <point x="827" y="110"/>
      <point x="834" y="148" type="curve" smooth="yes"/>
      <point x="841" y="186"/>
      <point x="818" y="212"/>
      <point x="782" y="212" type="curve" smooth="yes"/>
      <point x="746" y="212"/>
      <point x="715" y="186"/>
    </contour>
    <contour>
      <point x="809" y="416" type="line"/>
      <point x="957" y="416" type="line"/>
      <point x="795" y="270" type="line"/>
      <point x="767" y="258" type="line"/>
      <point x="795" y="280"/>
      <point x="811" y="285"/>
      <point x="842" y="285" type="curve" smooth="yes"/>
      <point x="902" y="285"/>
      <point x="965" y="234"/>
      <point x="950" y="148" type="curve" smooth="yes"/>
      <point x="931" y="40"/>
      <point x="841" y="-13"/>
      <point x="743" y="-13" type="curve" smooth="yes"/>
      <point x="645" y="-13"/>
      <point x="573" y="40"/>
      <point x="592" y="148" type="curve" smooth="yes"/>
      <point x="600" y="196"/>
      <point x="632" y="236"/>
      <point x="669" y="274" type="curve" smooth="yes"/>
    </contour>
  </outline>
</glyph>
<glyph name="minus" format="1">
  <advance width="594"/>
  <unicode hex="2212"/>
  <outline>
    <contour>
      <point x="83" y="164" type="line"/>
      <point x="109" y="312" type="line"/>
      <point x="595" y="312" type="line"/>
      <point x="569" y="164" type="line"/>
    </contour>
  </outline>
</glyph>
<glyph name="uniFF18" format="1">
  <advance width="645"/>
  <unicode hex="FF18"/>
  <outline>
    <contour>
      <point x="182" y="531" type="curve" smooth="yes"/>
      <point x="204" y="655"/>
      <point x="332" y="718"/>
      <point x="466" y="718" type="curve" smooth="yes"/>
      <point x="600" y="718"/>
      <point x="704" y="655"/>
      <point x="682" y="531" type="curve" smooth="yes"/>
      <point x="658" y="397"/>
      <point x="514" y="338"/>
      <point x="399" y="338" type="curve" smooth="yes"/>
      <point x="284" y="338"/>
      <point x="158" y="397"/>
    </contour>
    <contour>
      <point x="362" y="512" type="curve" smooth="yes"/>
      <point x="355" y="470"/>
      <point x="377" y="442"/>
      <point x="417" y="442" type="curve" smooth="yes"/>
      <point x="457" y="442"/>
      <point x="489" y="470"/>
      <point x="496" y="512" type="curve" smooth="yes"/>
      <point x="503" y="554"/>
      <point x="482" y="582"/>
      <point x="442" y="582" type="curve" smooth="yes"/>
      <point x="402" y="582"/>
      <point x="369" y="554"/>
    </contour>
    <contour>
      <point x="98" y="190" type="curve" smooth="yes"/>
      <point x="125" y="344"/>
      <point x="294" y="398"/>
      <point x="409" y="398" type="curve" smooth="yes"/>
      <point x="524" y="398"/>
      <point x="675" y="344"/>
      <point x="648" y="190" type="curve" smooth="yes"/>
      <point x="624" y="56"/>
      <point x="478" y="-18"/>
      <point x="336" y="-18" type="curve" smooth="yes"/>
      <point x="194" y="-18"/>
      <point x="74" y="56"/>
    </contour>
    <contour>
      <point x="297" y="220" type="curve" smooth="yes"/>
      <point x="287" y="166"/>
      <point x="317" y="138"/>
      <point x="363" y="138" type="curve" smooth="yes"/>
      <point x="409" y="138"/>
      <point x="447" y="166"/>
      <point x="457" y="220" type="curve" smooth="yes"/>
      <point x="465" y="264"/>
      <point x="438" y="298"/>
      <point x="392" y="298" type="curve" smooth="yes"/>
      <point x="346" y="298"/>
      <point x="305" y="264"/>
    </contour>
  </outline>
</glyph>
<glyph name="adieresis.alt" format="1">
  <advance width="630"/>
  <outline>
    <contour>
      <point x="486" y="460" type="line"/>
      <point x="659" y="460" type="line"/>
      <point x="578" y="0" type="line"/>
      <point x="405" y="0" type="line"/>
    </contour>
    <contour>
      <point x="72" y="230" type="curve" smooth="yes"/>
      <point x="101" y="396"/>
      <point x="222" y="478"/>
      <point x="330" y="478" type="curve" smooth="yes"/>
      <point x="454" y="478"/>
      <point x="507" y="379"/>
      <point x="481" y="230" type="curve" smooth="yes"/>
      <point x="455" y="81"/>
      <point x="367" y="-18"/>
      <point x="243" y="-18" type="curve" smooth="yes"/>
      <point x="135" y="-18"/>
      <point x="43" y="64"/>
    </contour>
    <contour>
      <point x="255" y="230" type="curve" smooth="yes"/>
      <point x="244" y="168"/>
      <point x="282" y="134"/>
      <point x="334" y="134" type="curve" smooth="yes"/>
      <point x="380" y="134"/>
      <point x="433" y="164"/>
      <point x="445" y="230" type="curve" smooth="yes"/>
      <point x="457" y="296"/>
      <point x="413" y="326"/>
      <point x="367" y="326" type="curve" smooth="yes"/>
      <point x="315" y="326"/>
      <point x="266" y="292"/>
    </contour>
    <contour>
      <point x="467" y="642" type="curve" smooth="yes"/>
      <point x="477" y="698"/>
      <point x="530" y="746"/>
      <point x="592" y="746" type="curve" smooth="yes"/>
      <point x="654" y="746"/>
      <point x="689" y="698"/>
      <point x="679" y="642" type="curve" smooth="yes"/>
      <point x="669" y="586"/>
      <point x="617" y="538"/>
      <point x="555" y="538" type="curve" smooth="yes"/>
      <point x="493" y="538"/>
      <point x="457" y="586"/>
    </contour>
    <contour>
      <point x="210" y="642" type="curve" smooth="yes"/>
      <point x="220" y="698"/>
      <point x="273" y="746"/>
      <point x="335" y="746" type="curve" smooth="yes"/>
      <point x="397" y="746"/>
      <point x="433" y="698"/>
      <point x="423" y="642" type="curve" smooth="yes"/>
      <point x="413" y="586"/>
      <point x="360" y="538"/>
      <point x="298" y="538" type="curve" smooth="yes"/>
      <point x="236" y="538"/>
      <point x="200" y="586"/>
    </contour>
  </outline>
</glyph>
<glyph name="atilde.alt" format="1">
  <advance width="630"/>
  <outline>
    <contour>
      <point x="486" y="460" type="line"/>
      <point x="659" y="460" type="line"/>
      <point x="578" y="0" type="line"/>
      <point x="405" y="0" type="line"/>
    </contour>
    <contour>
      <point x="72" y="230" type="curve" smooth="yes"/>
      <point x="101" y="396"/>
      <point x="222" y="478"/>
      <point x="330" y="478" type="curve" smooth="yes"/>
      <point x="454" y="478"/>
      <point x="507" y="379"/>
      <point x="481" y="230" type="curve" smooth="yes"/>
      <point x="455" y="81"/>
      <point x="367" y="-18"/>
      <point x="243" y="-18" type="curve" smooth="yes"/>
      <point x="135" y="-18"/>
      <point x="43" y="64"/>
    </contour>
    <contour>
      <point x="255" y="230" type="curve" smooth="yes"/>
      <point x="244" y="168"/>
      <point x="282" y="134"/>
      <point x="334" y="134" type="curve" smooth="yes"/>
      <point x="380" y="134"/>
      <point x="433" y="164"/>
      <point x="445" y="230" type="curve" smooth="yes"/>
      <point x="457" y="296"/>
      <point x="413" y="326"/>
      <point x="367" y="326" type="curve" smooth="yes"/>
      <point x="315" y="326"/>
      <point x="266" y="292"/>
    </contour>
    <contour>
      <point x="233" y="608" type="line"/>
      <point x="252" y="657"/>
      <point x="304" y="706"/>
      <point x="374" y="706" type="curve" smooth="yes"/>
      <point x="440" y="706"/>
      <point x="448" y="652"/>
      <point x="505" y="652" type="curve" smooth="yes"/>
      <point x="533" y="652"/>
      <point x="558" y="675"/>
      <point x="584" y="707" type="curve"/>
      <point x="648" y="624" type="line"/>
      <point x="625" y="587"/>
      <point x="554" y="534"/>
      <point x="488" y="534" type="curve" smooth="yes"/>
      <point x="433" y="534"/>
      <point x="405" y="590"/>
      <point x="354" y="590" type="curve" smooth="yes"/>
      <point x="317" y="590"/>
      <point x="302" y="553"/>
      <point x="299" y="538" type="curve"/>
    </contour>
  </outline>
</glyph>
